<?xml version="1.0" encoding="UTF-8" standalone="no"?>
<svg
   xmlns:dc="http://purl.org/dc/elements/1.1/"
   xmlns:cc="http://creativecommons.org/ns#"
   xmlns:rdf="http://www.w3.org/1999/02/22-rdf-syntax-ns#"
   xmlns:svg="http://www.w3.org/2000/svg"
   xmlns="http://www.w3.org/2000/svg"
   xmlns:sodipodi="http://sodipodi.sourceforge.net/DTD/sodipodi-0.dtd"
   xmlns:inkscape="http://www.inkscape.org/namespaces/inkscape"
   inkscape:version="1.0 (1.0+r73+1)"
   height="332.50256"
   width="293.3941"
   sodipodi:docname="dog.svg"
   version="1.0"
   viewBox="0 0 293.39412 332.50257"
   id="svg2">
  <defs
     id="defs38" />
  <sodipodi:namedview
     inkscape:current-layer="svg2"
     inkscape:window-maximized="1"
     inkscape:window-y="0"
     inkscape:window-x="0"
     inkscape:cy="196.64586"
     inkscape:cx="146.69705"
     inkscape:zoom="2.1535176"
     fit-margin-bottom="0"
     fit-margin-right="0"
     fit-margin-left="0"
     fit-margin-top="0"
     showgrid="false"
     id="namedview36"
     inkscape:window-height="1027"
     inkscape:window-width="1920"
     inkscape:pageshadow="2"
     inkscape:pageopacity="0"
     guidetolerance="10"
     gridtolerance="10"
     objecttolerance="10"
     borderopacity="1"
     bordercolor="#666666"
     pagecolor="#ffffff" />
  <path
     id="path3205"
     style="fill:#784421;fill-rule:evenodd;stroke:#000000;stroke-width:4;stroke-linejoin:round"
     d="m 143.03205,77.500859 c 1.5,-30.5 39,-75 45.5,-75.5 6.5,-0.5 -14,70.5 -19.5,75.5 -5.5,5 -25.5,1.5 -26,0 z" />
  <path
     id="path3257"
     style="fill:#000000;fill-opacity:0.31373;fill-rule:evenodd"
     d="m 188.53205,1.990859 c -0.52,0.0397 -1.25,0.3727 -2.12,0.9375 -0.96,13.17 -22.91,66.266 -28.16,70.124 -2.96,2.178 -9.25,1.941 -14.88,0.938 -0.15,1.18 -0.28,2.356 -0.34,3.5 0.5,1.5 20.5,5 26,0 5.5,-5 26,-76 19.5,-75.5 z" />
  <path
     id="path2383"
     style="fill:#a05a2c;stroke:#000000;stroke-width:4;stroke-linecap:round;stroke-linejoin:round"
     d="m 269.79015,189.78905 a 123.38462,123.38462 0 1 1 -246.758356,0 123.38462,123.38462 0 1 1 246.758356,0 z" />
  <path
     id="path3276"
     style="fill:#000000;fill-opacity:0.31373;stroke-width:1.403"
     d="m 246.80061,170.31179 a 95.387164,95.387164 0 1 1 -190.765906,0 95.387164,95.387164 0 1 1 190.765906,0 z" />
  <path
     id="path3339"
     style="fill:#000000;fill-opacity:0.31373"
     d="m 254.98205,131.17086 c 3.2,10.97 4.91,22.59 4.91,34.59 0,68.11 -55.27,123.38 -123.38,123.38 -46.819996,0 -87.599996,-26.14 -108.499996,-64.6 15.03,51.2 62.37,88.63 118.409996,88.63 68.11,0 123.37,-55.27 123.37,-123.38 0,-21.21 -5.37,-41.18 -14.81,-58.62 z" />
  <path
     id="path3235"
     style="fill:#a05a2c;stroke:#000000;stroke-width:4;stroke-linecap:round;stroke-linejoin:round"
     d="m 230.45205,309.72086 c 0,21.54 -17.48,20.77 -39.03,20.77 -21.54,0 -39.03,0.77 -39.03,-20.77 0,-21.55 17.49,-39.03 39.03,-39.03 21.55,0 39.03,17.48 39.03,39.03 z" />
  <path
     id="path3238"
     style="fill:#a05a2c;stroke:#000000;stroke-width:4;stroke-linecap:round;stroke-linejoin:round"
     d="m 140.43205,309.72086 c 0,21.54 -17.48,20.77 -39.03,20.77 -11.979996,0 -22.699996,0.24 -29.859996,-3.25 -5.72,-2.79 -9.17,-7.96 -9.17,-17.52 0,-21.55 17.49,-39.03 39.029996,-39.03 21.55,0 39.03,17.48 39.03,39.03 z" />
  <g
     id="g3263"
     transform="matrix(-1,0,0,1,473.10205,-301.34754)">
    <path
       id="path3265"
       style="fill:none;stroke:#000000;stroke-width:4;stroke-linecap:round"
       d="m 357.34,628.69 c -3.5,-11.33 0.5,-24.55 0.5,-24.55" />
    <path
       id="path3267"
       style="fill:none;stroke:#000000;stroke-width:4;stroke-linecap:round"
       d="m 375.37,631.21 c 4.29,-18.25 -0.62,-32.73 -0.62,-32.73" />
    <path
       id="path3269"
       style="fill:none;stroke:#000000;stroke-width:4;stroke-linecap:round"
       d="m 393.62,629.32 c 8.81,-13.85 1.26,-25.18 1.26,-25.18" />
  </g>
  <path
     id="path2418"
     style="fill:#a05a2c;stroke:#000000;stroke-width:4.00009;stroke-linecap:round;stroke-linejoin:round"
     d="m 241.80061,156.81179 a 95.387164,95.387164 0 1 1 -190.765906,0 95.387164,95.387164 0 1 1 190.765906,0 z" />
  <path
     id="path3251"
     style="fill:#000000;fill-opacity:0.31373"
     d="m 233.47205,117.74086 c 1.52,6.77 2.34,13.8 2.34,21.03 0,52.65 -42.75,95.41 -95.4,95.41 -38.78,0 -72.157996,-23.19 -87.067996,-56.44 9.556,42.59 47.607996,74.44 93.067996,74.44 52.65,0 95.4,-42.76 95.4,-95.41 0,-13.91 -2.98,-27.11 -8.34,-39.03 z" />
  <path
     id="path2387"
     style="fill:#ffffff;stroke:#000000;stroke-width:4.00001;stroke-linecap:round;stroke-linejoin:round"
     d="m 142.29184,138.78688 a 27.384207,27.384207 0 1 1 -54.765997,0 27.384207,27.384207 0 1 1 54.765997,0 z" />
  <path
     id="path2391"
     style="fill:#ffffff;stroke:#000000;stroke-width:4.00001;stroke-linecap:round;stroke-linejoin:round"
     d="m 205.87184,138.78688 a 27.384207,27.384207 0 1 1 -54.766,0 27.384207,27.384207 0 1 1 54.766,0 z" />
  <path
     id="path2393"
     style="fill:#000000;stroke-width:0.125"
     d="m 131.59205,141.92961 a 8.4985,8.4985 0 1 1 -16.99625,0 8.4985,8.4985 0 1 1 16.99625,0 z" />
  <path
     id="path2395"
     style="fill:#000000;stroke-width:0.125"
     d="m 178.17205,141.92961 a 8.4985,8.4985 0 1 1 -16.99625,0 8.4985,8.4985 0 1 1 16.99625,0 z" />
  <path
     id="path2397"
     style="fill:#000000"
     d="m 171.76205,203.23086 c 0,13.77 -15.08,24.95 -25.07,24.95 -10.75,0 -25.06,-11.18 -25.06,-24.95 0,-13.78 11.23,-17.28 25.06,-17.28 13.84,0 25.07,3.5 25.07,17.28 z" />
  <path
     id="path3327"
     style="fill:#000000;fill-opacity:0.31373"
     d="m 211.92205,276.51086 c 4.72,6.48 7.53,14.47 7.53,23.09 0,12.47 -5.84,23.56 -14.91,30.76 15.09,-0.58 25.91,-3.7 25.91,-20.63 0,-14.03 -7.41,-26.34 -18.53,-33.22 z" />
  <g
     id="g2410"
     transform="translate(-179.19523,-301.34754)">
    <path
       id="path2412"
       style="fill:none;stroke:#000000;stroke-width:4;stroke-linecap:round"
       d="m 357.34,628.69 c -3.5,-11.33 0.5,-24.55 0.5,-24.55" />
    <path
       id="path2414"
       style="fill:none;stroke:#000000;stroke-width:4;stroke-linecap:round"
       d="m 375.37,631.21 c 4.29,-18.25 -0.62,-32.73 -0.62,-32.73" />
    <path
       id="path2416"
       style="fill:none;stroke:#000000;stroke-width:4;stroke-linecap:round"
       d="m 393.62,629.32 c 8.81,-13.85 1.26,-25.18 1.26,-25.18" />
  </g>
  <path
     id="path3332"
     style="fill:#000000;fill-opacity:0.31373"
     d="m 121.42205,276.51086 c 4.72,6.48 7.53,14.47 7.53,23.09 0,12.47 -5.84,23.56 -14.91,30.76 15.09,-0.58 25.91,-3.7 25.91,-20.63 0,-14.03 -7.41,-26.34 -18.53,-33.22 z" />
  <path
     id="path3349"
     style="fill:#000000;fill-opacity:0.31373"
     d="m 157.61205,290.23086 c -3.32,5.73 -5.22,12.41 -5.22,19.5 0,17.51 11.55,20.26 27.44,20.69 -15.78,-6.58 -23.81,-22.21 -22.22,-40.19 z" />
  <path
     id="path3201"
     style="fill:#784421;fill-rule:evenodd;stroke:#000000;stroke-width:4;stroke-linejoin:round"
     d="m 79.242054,88.000859 c -54.92,-3.88 -83.5300004,62.300001 -76.0300004,81.800001 6.1,15.85 39.7900004,31.84 38.4300004,17.3 -4.41,-47.18 54.73,-97.890001 37.6,-99.100001 z" />
  <path
     id="path3203"
     style="fill:#784421;fill-rule:evenodd;stroke:#000000;stroke-width:4;stroke-linejoin:round"
     d="m 214.15205,88.000859 c 54.92,-3.88 83.53,62.300001 76.03,81.800001 -6.1,15.85 -39.79,31.84 -38.43,17.3 4.41,-47.18 -54.73,-97.890001 -37.6,-99.100001 z" />
  <path
     id="path3262"
     style="fill:#000000;fill-opacity:0.31373;fill-rule:evenodd"
     d="m 219.22205,87.834859 c 50.9,10.295 64.66,77.406001 53.75,94.536001 -2.42,3.79 -6.76,7.18 -11.72,9.9 10.08,-2.33 25.07,-12.41 28.94,-22.47 7.26,-18.89 -19.37,-81.588001 -70.97,-81.966001 z" />
  <metadata
     id="metadata33">
    <rdf:RDF>
      <cc:Work>
        <dc:format>image/svg+xml</dc:format>
        <dc:type
           rdf:resource="http://purl.org/dc/dcmitype/StillImage" />
        <cc:license
           rdf:resource="http://creativecommons.org/publicdomain/zero/1.0/" />
        <dc:publisher>
          <cc:Agent
             rdf:about="http://openclipart.org/">
            <dc:title>Openclipart</dc:title>
          </cc:Agent>
        </dc:publisher>
        <dc:title></dc:title>
      </cc:Work>
      <cc:License
         rdf:about="http://creativecommons.org/publicdomain/zero/1.0/">
        <cc:permits
           rdf:resource="http://creativecommons.org/ns#Reproduction" />
        <cc:permits
           rdf:resource="http://creativecommons.org/ns#Distribution" />
        <cc:permits
           rdf:resource="http://creativecommons.org/ns#DerivativeWorks" />
      </cc:License>
    </rdf:RDF>
  </metadata>
</svg>
