<?xml version="1.0" encoding="UTF-8" standalone="no"?>
<svg
   xmlns:dc="http://purl.org/dc/elements/1.1/"
   xmlns:cc="http://creativecommons.org/ns#"
   xmlns:rdf="http://www.w3.org/1999/02/22-rdf-syntax-ns#"
   xmlns:svg="http://www.w3.org/2000/svg"
   xmlns="http://www.w3.org/2000/svg"
   xmlns:sodipodi="http://sodipodi.sourceforge.net/DTD/sodipodi-0.dtd"
   xmlns:inkscape="http://www.inkscape.org/namespaces/inkscape"
   inkscape:version="1.0 (1.0+r73+1)"
   sodipodi:docname="icecreamshop.svg"
   viewBox="0 0 1112.6667 784"
   height="784"
   width="1112.6667"
   xml:space="preserve"
   id="svg2"
   version="1.1"><metadata
     id="metadata8"><rdf:RDF><cc:Work
         rdf:about=""><dc:format>image/svg+xml</dc:format><dc:type
           rdf:resource="http://purl.org/dc/dcmitype/StillImage" /><dc:title></dc:title></cc:Work></rdf:RDF></metadata><defs
     id="defs6" /><sodipodi:namedview
     inkscape:current-layer="g10"
     inkscape:window-maximized="1"
     inkscape:window-y="0"
     inkscape:window-x="0"
     inkscape:cy="392"
     inkscape:cx="556.33337"
     inkscape:zoom="0.98591964"
     showgrid="false"
     id="namedview4"
     inkscape:window-height="1027"
     inkscape:window-width="1920"
     inkscape:pageshadow="2"
     inkscape:pageopacity="0"
     guidetolerance="10"
     gridtolerance="10"
     objecttolerance="10"
     borderopacity="1"
     bordercolor="#666666"
     pagecolor="#ffffff" /><g
     transform="matrix(1.3333333,0,0,-1.3333333,0,784)"
     inkscape:label="ink_ext_XXXXXX"
     inkscape:groupmode="layer"
     id="g10"><path
       d="M 0,0 H 838.458 V 220.465 H 0 Z"
       style="fill:#fcd2a8;fill-opacity:1;fill-rule:nonzero;stroke:none;stroke-width:0.1"
       id="path14" /><path
       d="M -2.93203,-5.33594 H 837.958 V 219.965 H -2.93203 V -5.33594 m 841.39003,-1 H -3.43203 c -0.27578,0 -0.5,0.22383 -0.5,0.5 V 220.465 c 0,0.276 0.22422,0.5 0.5,0.5 H 838.458 c 0.276,0 0.5,-0.224 0.5,-0.5 V -5.83594 c 0,-0.27617 -0.224,-0.5 -0.5,-0.5"
       style="fill:#b0824f;fill-opacity:1;fill-rule:nonzero;stroke:none;stroke-width:0.1"
       id="path16" /><path
       d="M 0,0 H 838.458 V 589.445 H 0 Z"
       style="fill:#def3dd;fill-opacity:1;fill-rule:nonzero;stroke:none;stroke-width:0.1"
       id="path18" /><path
       d="M 0,0 H 838.458 V 219.445 H 0 Z"
       style="fill:#b55946;fill-opacity:1;fill-rule:nonzero;stroke:none;stroke-width:0.1"
       id="path20" /><path
       d="M -2.93164,-5.33594 H 837.958 V 218.945 H -2.93164 V -5.33594 m 841.38964,-1 H -3.43164 c -0.27578,0 -0.5,0.22383 -0.5,0.5 V 219.445 c 0,0.277 0.22422,0.5 0.5,0.5 H 838.458 c 0.276,0 0.5,-0.223 0.5,-0.5 V -5.83594 c 0,-0.27617 -0.224,-0.5 -0.5,-0.5"
       style="fill:#7e331a;fill-opacity:1;fill-rule:nonzero;stroke:none;stroke-width:0.1"
       id="path22" /><path
       d="M 0,462.164 H 838.458 V 590.465 H 0 Z"
       style="fill:#fffeee;fill-opacity:1;fill-rule:nonzero;stroke:none;stroke-width:0.1"
       id="path24" /><path
       d="M -2.93203,462.664 H 837.958 V 589.965 H -2.93203 V 462.664 m 841.39003,-1 H -3.43203 c -0.27578,0 -0.5,0.224 -0.5,0.5 v 128.301 c 0,0.276 0.22422,0.5 0.5,0.5 H 838.458 c 0.276,0 0.5,-0.224 0.5,-0.5 V 462.164 c 0,-0.276 -0.224,-0.5 -0.5,-0.5"
       style="fill:#d5d6d6;fill-opacity:1;fill-rule:nonzero;stroke:none;stroke-width:0.1"
       id="path26" /><path
       d="M 838.458,590.465 602.72,461.944 V 219.997 L 838.917,-5.08398 838.458,590.465"
       style="fill:#f6fbeb;fill-opacity:1;fill-rule:nonzero;stroke:none;stroke-width:0.1"
       id="path28" /><path
       d="m 701.749,126.319 -98.529,93.892 v 239.846 l 98.529,-172.908 v -13.178 c -3.548,-2.216 -5.957,-6.49 -5.957,-11.388 0,-4.898 2.409,-9.172 5.957,-11.388 V 126.319"
       style="fill:#e4ebd4;fill-opacity:1;fill-rule:nonzero;stroke:none;stroke-width:0.1"
       id="path32" /><path
       d="m 701.749,124.937 -99.23,94.56 h 0.201 c 0.276,0 0.5,0.224 0.5,0.5 v 0.214 l 98.529,-93.892 v -1.382 m -98.529,336.71 v 0.297 c 0,0.084 -0.021,0.163 -0.057,0.232 l 0.243,-0.427 -0.186,-0.102"
       style="fill:#c5c6c5;fill-opacity:1;fill-rule:nonzero;stroke:none;stroke-width:0.1"
       id="path34" /><path
       d="m 701.749,126.319 -98.529,93.892 98.529,-93.892 v 0 m 0,160.83 -98.529,172.908 v 1.59 l 0.186,0.102 98.343,-172.58 v -2.02"
       style="fill:#e3ecda;fill-opacity:1;fill-rule:nonzero;stroke:none;stroke-width:0.1"
       id="path36" /><path
       d="M -3.75195,590.465 231.985,461.944 V 219.997 L -3.75195,-5.83594 V 590.465"
       style="fill:#f6fbeb;fill-opacity:1;fill-rule:nonzero;stroke:none;stroke-width:0.1"
       id="path38" /><path
       d="M -3.25195,589.623 V -4.66406 L 231.485,220.211 V 461.647 L -3.25195,589.623 m -0.5,-595.95894 -0.19649,0.03985 c -0.18398,0.07929 -0.30351,0.26015 -0.30351,0.46015 V 590.465 c 0,0.176 0.09336,0.34 0.24453,0.43 0.15195,0.091 0.34023,0.093 0.49492,0.009 L 232.225,462.383 c 0.16,-0.087 0.26,-0.256 0.26,-0.439 V 219.997 c 0,-0.137 -0.055,-0.267 -0.154,-0.361 L -3.40586,-6.19688 c -0.09531,-0.09101 -0.21953,-0.13906 -0.34609,-0.13906"
       style="fill:#d5d6d6;fill-opacity:1;fill-rule:nonzero;stroke:none;stroke-width:0.1"
       id="path40" /><path
       d="m 137.328,130.971 v 123.224 c 3.549,2.216 5.957,6.49 5.957,11.388 0,4.898 -2.408,9.172 -5.957,11.388 v 27.53 l 94.157,155.65 v -238.28 l -94.157,-90.9"
       style="fill:#e4ebd4;fill-opacity:1;fill-rule:nonzero;stroke:none;stroke-width:0.1"
       id="path42" /><path
       d="m 195.689,184.533 36.319,35.062 c 0.055,-0.041 0.12,-0.071 0.19,-0.086 l -36.509,-34.976 m 35.796,37.338 v 238.28 1.496 l -0.198,0.109 0.271,0.447 c 0.091,0.152 0.253,0.242 0.425,0.242 0.045,0 0.091,-0.006 0.137,-0.019 0.008,-0.003 0.016,-0.005 0.025,-0.008 -0.198,-0.067 -0.339,-0.254 -0.339,-0.474 V 222.18 l -0.321,-0.309"
       style="fill:#c5c6c5;fill-opacity:1;fill-rule:nonzero;stroke:none;stroke-width:0.1"
       id="path44" /><path
       d="m 137.328,304.501 v 1.933 l 93.959,155.322 0.198,-0.109 v -1.496 l -94.157,-155.65"
       style="fill:#e3ecda;fill-opacity:1;fill-rule:nonzero;stroke:none;stroke-width:0.1"
       id="path46" /><path
       d="M 839.319,12.25 602.999,230 V 219.5 L 839.319,-5.83594 V 12.25"
       style="fill:#6b3336;fill-opacity:1;fill-rule:nonzero;stroke:none;stroke-width:0.1"
       id="path48" /><path
       d="M 603.499,219.714 838.819,-4.66797 V 12.0309 L 603.499,228.859 Z M 839.319,-6.33594 c -0.126,0 -0.25,0.04805 -0.344,0.13789 L 602.654,219.138 c -0.099,0.094 -0.155,0.225 -0.155,0.362 V 230 c 0,0.198 0.117,0.378 0.299,0.458 0.181,0.08 0.394,0.043 0.54,-0.09 l 236.32,-217.75 c 0.103,-0.095 0.161,-0.2278 0.161,-0.368 V -5.83594 c 0,-0.2 -0.119,-0.38086 -0.302,-0.46015 l -0.198,-0.03985"
       style="fill:#7e331a;fill-opacity:1;fill-rule:nonzero;stroke:none;stroke-width:0.1"
       id="path50" /><path
       d="M 291.646,499.443 H 543.125 L 569.38,513.93 H 265.103 l 26.543,-14.487"
       style="fill:#ffffff;fill-opacity:1;fill-rule:nonzero;stroke:none;stroke-width:0.1"
       id="path52" /><path
       d="m 291.774,499.943 h 251.222 l 24.443,13.487 H 267.063 l 24.711,-13.487 m 251.351,-1 H 291.646 l -0.239,0.062 -26.543,14.486 c -0.2,0.11 -0.302,0.341 -0.245,0.563 0.056,0.221 0.256,0.376 0.484,0.376 H 569.38 c 0.228,0 0.427,-0.155 0.484,-0.375 0.057,-0.222 -0.043,-0.452 -0.242,-0.563 l -26.255,-14.486 -0.242,-0.063"
       style="fill:#d5d6d6;fill-opacity:1;fill-rule:nonzero;stroke:none;stroke-width:0.1"
       id="path54" /><path
       d="M 682.324,576.25 H 150.918 l 65.489,-35.742 h 401.141 l 64.776,35.742"
       style="fill:#ffffff;fill-opacity:1;fill-rule:nonzero;stroke:none;stroke-width:0.1"
       id="path56" /><path
       d="m 216.535,541.008 h 400.884 l 62.964,34.742 H 152.878 l 63.657,-34.742 m 401.013,-1 H 216.407 l -0.24,0.061 -65.488,35.743 c -0.2,0.109 -0.302,0.34 -0.245,0.562 0.056,0.221 0.256,0.376 0.484,0.376 h 531.406 c 0.228,0 0.428,-0.154 0.485,-0.375 0.056,-0.221 -0.043,-0.452 -0.243,-0.562 l -64.776,-35.743 -0.242,-0.062"
       style="fill:#d5d6d6;fill-opacity:1;fill-rule:nonzero;stroke:none;stroke-width:0.1"
       id="path58" /><path
       d="M 542.996,499.943 H 291.774 l -24.711,13.487 h 4.454 l 20.129,-10.987 h 251.479 l 19.912,10.987 h 4.402 l -24.443,-13.487"
       style="fill:#d5d6d6;fill-opacity:1;fill-rule:nonzero;stroke:none;stroke-width:0.1"
       id="path60" /><path
       d="M 543.125,499.443 H 291.646 l -26.543,14.487 h 5.498 l 0.916,-0.5 h -4.454 l 24.711,-13.487 h 251.222 l 24.443,13.487 h -4.402 l 0.906,0.5 h 5.437 l -26.255,-14.487"
       style="fill:#adb0b1;fill-opacity:1;fill-rule:nonzero;stroke:none;stroke-width:0.1"
       id="path62" /><path
       d="M 617.419,541.008 H 216.535 l -63.657,34.742 h 4.453 l 59.076,-32.242 h 401.141 l 58.434,32.242 h 4.401 l -62.964,-34.742"
       style="fill:#d5d6d6;fill-opacity:1;fill-rule:nonzero;stroke:none;stroke-width:0.1"
       id="path64" /><path
       d="M 617.548,540.508 H 216.407 l -65.489,35.742 h 5.497 l 0.916,-0.5 h -4.453 l 63.657,-34.742 h 400.884 l 62.964,34.742 h -4.401 l 0.906,0.5 h 5.436 l -64.776,-35.742"
       style="fill:#adb0b1;fill-opacity:1;fill-rule:nonzero;stroke:none;stroke-width:0.1"
       id="path66" /><path
       d="M 4.54375,0 H 3.46055 L 94.6199,86.9602 4.54375,0 M 137.328,128.191 v 0.433 l 58.352,55.901 -58.352,-56.334"
       style="fill:#893029;fill-opacity:1;fill-rule:nonzero;stroke:none;stroke-width:0.1"
       id="path68" /><path
       d="m 137.328,128.624 v 0 l 58.361,55.909 -0.009,-0.008 -58.352,-55.901"
       style="fill:#9d6e73;fill-opacity:1;fill-rule:nonzero;stroke:none;stroke-width:0.1"
       id="path70" /><path
       d="m 137.328,130.01 v 0.961 l 94.157,90.9 v -1.66 L 137.328,130.01"
       style="fill:#aa7972;fill-opacity:1;fill-rule:nonzero;stroke:none;stroke-width:0.1"
       id="path72" /><path
       d="m 137.328,130.009 v 0.001 l 94.157,90.201 v 1.66 -1.66 l -94.157,-90.202"
       style="fill:#926666;fill-opacity:1;fill-rule:nonzero;stroke:none;stroke-width:0.1"
       id="path74" /><path
       d="m 137.328,128.624 v 1.385 l 94.157,90.202 v 1.66 l 0.321,0.309 v -2.183 c 0,-0.165 0.079,-0.31 0.202,-0.402 l -36.319,-35.062 -58.361,-55.909"
       style="fill:#92666a;fill-opacity:1;fill-rule:nonzero;stroke:none;stroke-width:0.1"
       id="path76" /><path
       d="M 43.9168,0 H 41.1766 L 227.275,198.573 c -0.2,-1.04 -0.408,-2.234 -0.611,-3.576 L 43.9168,0 m 190.4662,203.234 -2.733,0.007 14.717,15.704 h 2.741 l -14.725,-15.711"
       style="fill:#893029;fill-opacity:1;fill-rule:nonzero;stroke:none;stroke-width:0.1"
       id="path78" /><path
       d="m 249.108,218.945 h -2.741 l 0.517,0.552 h 2.741 l -0.517,-0.552"
       style="fill:#5d1f14;fill-opacity:1;fill-rule:nonzero;stroke:none;stroke-width:0.1"
       id="path80" /><path
       d="M 83.2934,0 H 80.684 l 144.982,172.9 c 0.053,-0.94 0.12,-1.904 0.2,-2.873 L 83.2934,0 m 170.3756,203.184 -2.604,0.007 13.211,15.754 h 2.61 l -13.217,-15.761"
       style="fill:#893029;fill-opacity:1;fill-rule:nonzero;stroke:none;stroke-width:0.1"
       id="path82" /><path
       d="m 266.886,218.945 h -2.61 l 0.043,0.052 h 2.61 l -0.043,-0.052"
       style="fill:#5d1f14;fill-opacity:1;fill-rule:nonzero;stroke:none;stroke-width:0.1"
       id="path84" /><path
       d="m 122.675,0 h -2.488 l 109.786,148.384 c 0.238,-0.781 0.487,-1.567 0.747,-2.353 L 122.675,0 m 150.294,203.134 -2.482,0.006 11.694,15.805 h 2.487 l -11.699,-15.811"
       style="fill:#893029;fill-opacity:1;fill-rule:nonzero;stroke:none;stroke-width:0.1"
       id="path86" /><path
       d="m 284.668,218.945 h -2.487 l 0.408,0.552 h 2.487 l -0.408,-0.552"
       style="fill:#5d1f14;fill-opacity:1;fill-rule:nonzero;stroke:none;stroke-width:0.1"
       id="path88" /><path
       d="m 162.062,0 h -2.376 l 80.518,125.569 c 0.382,-0.625 0.773,-1.25 1.174,-1.875 L 162.062,0 m 130.223,203.083 -2.373,0.007 10.167,15.855 h 2.377 l -10.171,-15.862"
       style="fill:#893029;fill-opacity:1;fill-rule:nonzero;stroke:none;stroke-width:0.1"
       id="path90" /><path
       d="m 302.456,218.945 h -2.377 l 0.354,0.552 h 2.377 l -0.354,-0.552"
       style="fill:#5d1f14;fill-opacity:1;fill-rule:nonzero;stroke:none;stroke-width:0.1"
       id="path92" /><path
       d="m 201.453,0 h -2.274 l 57.173,105.374 c 0.488,-0.479 0.992,-0.964 1.494,-1.439 L 201.453,0 m 110.162,203.033 -2.272,0.006 8.631,15.906 h 2.275 l -8.634,-15.912"
       style="fill:#893029;fill-opacity:1;fill-rule:nonzero;stroke:none;stroke-width:0.1"
       id="path94" /><path
       d="m 320.249,218.945 h -2.275 l 0.299,0.552 h 2.275 l -0.299,-0.552"
       style="fill:#5d1f14;fill-opacity:1;fill-rule:nonzero;stroke:none;stroke-width:0.1"
       id="path96" /><path
       d="m 240.852,0 h -2.188 l 39.283,88.4879 c 0.567,-0.3559 1.138,-0.709 1.717,-1.0609 L 240.852,0 m 90.11,202.983 -2.185,0.005 7.084,15.957 h 2.187 l -7.086,-15.962"
       style="fill:#893029;fill-opacity:1;fill-rule:nonzero;stroke:none;stroke-width:0.1"
       id="path98" /><path
       d="m 338.048,218.945 h -2.187 l 0.244,0.552 h 2.188 l -0.245,-0.552"
       style="fill:#5d1f14;fill-opacity:1;fill-rule:nonzero;stroke:none;stroke-width:0.1"
       id="path100" /><path
       d="m 280.259,0 h -2.116 l 25.969,75.2121 c 0.613,-0.2512 1.235,-0.5012 1.858,-0.748 L 280.259,0 m 70.068,202.932 -2.114,0.006 5.527,16.007 h 2.116 l -5.529,-16.013"
       style="fill:#893029;fill-opacity:1;fill-rule:nonzero;stroke:none;stroke-width:0.1"
       id="path102" /><path
       d="m 355.856,218.945 h -2.116 l 0.19,0.552 h 2.116 l -0.19,-0.552"
       style="fill:#5d1f14;fill-opacity:1;fill-rule:nonzero;stroke:none;stroke-width:0.1"
       id="path104" /><path
       d="m 319.673,0 h -2.059 l 16.148,65.4781 c 0.642,-0.166 1.288,-0.3312 1.937,-0.4953 L 319.673,0 m 50.036,202.882 -2.058,0.005 3.96,16.058 h 2.059 l -3.961,-16.063"
       style="fill:#893029;fill-opacity:1;fill-rule:nonzero;stroke:none;stroke-width:0.1"
       id="path106" /><path
       d="m 373.67,218.945 h -2.059 l 0.136,0.552 h 2.059 l -0.136,-0.552"
       style="fill:#5d1f14;fill-opacity:1;fill-rule:nonzero;stroke:none;stroke-width:0.1"
       id="path108" /><path
       d="m 359.096,0 h -2.022 l 8.727,58.9742 c 0.66,-0.1012 1.312,-0.1992 1.978,-0.2972 L 359.096,0 m 30.014,202.831 -2.021,0.005 2.384,16.109 h 2.021 l -2.384,-16.114"
       style="fill:#893029;fill-opacity:1;fill-rule:nonzero;stroke:none;stroke-width:0.1"
       id="path110" /><path
       d="m 391.494,218.945 h -2.021 l 0.082,0.552 h 2.021 l -0.082,-0.552"
       style="fill:#5d1f14;fill-opacity:1;fill-rule:nonzero;stroke:none;stroke-width:0.1"
       id="path112" /><path
       d="m 398.529,0 h -2.003 l 2.726,55.2559 c 0.668,-0.0489 1.322,-0.0957 1.996,-0.1418 L 398.529,0 m 10.003,202.781 -2.003,0.005 0.797,16.159 h 2.003 l -0.797,-16.164"
       style="fill:#893029;fill-opacity:1;fill-rule:nonzero;stroke:none;stroke-width:0.1"
       id="path114" /><path
       d="m 409.329,218.945 h -2.003 l 0.027,0.552 h 2.003 l -0.027,-0.552"
       style="fill:#5d1f14;fill-opacity:1;fill-rule:nonzero;stroke:none;stroke-width:0.1"
       id="path116" /><path
       d="m 437.972,0 h -2.003 l -2.69,54.5332 c 0.655,0.0188 1.326,0.0398 2,0.0629 L 437.972,0 m -10,202.73 -2.003,0.005 -0.8,16.21 h 2.003 l 0.8,-16.215"
       style="fill:#893029;fill-opacity:1;fill-rule:nonzero;stroke:none;stroke-width:0.1"
       id="path118" /><path
       d="m 427.172,218.945 h -2.003 l -0.027,0.552 h 2.003 l 0.027,-0.552"
       style="fill:#5d1f14;fill-opacity:1;fill-rule:nonzero;stroke:none;stroke-width:0.1"
       id="path120" /><path
       d="m 477.424,0 h -2.022 l -8.403,56.7891 c 0.661,0.0679 1.321,0.1371 1.991,0.2078 L 477.424,0 m -29.992,202.679 -2.022,0.006 -2.406,16.26 h 2.021 l 2.407,-16.266"
       style="fill:#893029;fill-opacity:1;fill-rule:nonzero;stroke:none;stroke-width:0.1"
       id="path122" /><path
       d="m 445.025,218.945 h -2.021 l -0.082,0.552 h 2.021 l 0.082,-0.552"
       style="fill:#5d1f14;fill-opacity:1;fill-rule:nonzero;stroke:none;stroke-width:0.1"
       id="path124" /><path
       d="m 516.885,0 h -2.06 l -15.096,61.2109 c 0.663,0.1172 1.316,0.2371 1.97,0.361 L 516.885,0 m -49.974,202.629 -2.061,0.005 -4.023,16.311 h 2.06 l 4.024,-16.316"
       style="fill:#893029;fill-opacity:1;fill-rule:nonzero;stroke:none;stroke-width:0.1"
       id="path126" /><path
       d="m 462.887,218.945 h -2.06 l -0.136,0.552 h 2.06 l 0.136,-0.552"
       style="fill:#5d1f14;fill-opacity:1;fill-rule:nonzero;stroke:none;stroke-width:0.1"
       id="path128" /><path
       d="m 556.356,0 h -2.116 l -24.075,69.7262 c 0.626,0.2508 1.239,0.5008 1.854,0.7578 L 556.356,0 m -69.945,202.578 -2.119,0.005 -5.649,16.362 h 2.116 l 5.652,-16.367"
       style="fill:#893029;fill-opacity:1;fill-rule:nonzero;stroke:none;stroke-width:0.1"
       id="path130" /><path
       d="m 480.759,218.945 h -2.116 l -0.191,0.552 h 2.117 l 0.19,-0.552"
       style="fill:#5d1f14;fill-opacity:1;fill-rule:nonzero;stroke:none;stroke-width:0.1"
       id="path132" /><path
       d="m 595.833,0 h -2.187 l -37.321,84.068 c 0.556,0.4062 1.101,0.8121 1.644,1.225 L 595.833,0 m -89.907,202.527 -2.191,0.006 -7.286,16.412 h 2.189 l 7.288,-16.418"
       style="fill:#893029;fill-opacity:1;fill-rule:nonzero;stroke:none;stroke-width:0.1"
       id="path134" /><path
       d="m 498.638,218.945 h -2.189 l -0.245,0.552 h 2.189 l 0.245,-0.552"
       style="fill:#5d1f14;fill-opacity:1;fill-rule:nonzero;stroke:none;stroke-width:0.1"
       id="path136" /><path
       d="m 635.32,0 h -2.275 l -56.239,103.652 c 0.454,0.568 0.904,1.143 1.343,1.716 L 635.32,0 m -109.859,202.476 -2.278,0.006 -8.933,16.463 h 2.275 l 8.936,-16.469"
       style="fill:#893029;fill-opacity:1;fill-rule:nonzero;stroke:none;stroke-width:0.1"
       id="path138" /><path
       d="m 516.525,218.945 h -2.275 l -0.299,0.552 h 2.274 l 0.3,-0.552"
       style="fill:#5d1f14;fill-opacity:1;fill-rule:nonzero;stroke:none;stroke-width:0.1"
       id="path140" /><path
       d="m 674.813,0 h -2.376 l -81.369,126.895 c 0.334,0.724 0.661,1.454 0.978,2.18 L 674.813,0 m -129.801,202.425 -2.38,0.006 -10.589,16.514 h 2.376 l 10.593,-16.52"
       style="fill:#893029;fill-opacity:1;fill-rule:nonzero;stroke:none;stroke-width:0.1"
       id="path142" /><path
       d="m 534.419,218.945 h -2.376 l -0.354,0.552 h 2.376 l 0.354,-0.552"
       style="fill:#5d1f14;fill-opacity:1;fill-rule:nonzero;stroke:none;stroke-width:0.1"
       id="path144" /><path
       d="m 714.31,0 h -2.487 L 599.532,151.77 c 0.202,0.862 0.395,1.723 0.579,2.578 L 714.31,0 m -149.732,202.374 -2.492,0.007 -12.256,16.564 h 2.487 l 12.261,-16.571"
       style="fill:#893029;fill-opacity:1;fill-rule:nonzero;stroke:none;stroke-width:0.1"
       id="path146" /><path
       d="m 552.317,218.945 h -2.487 l -0.408,0.552 h 2.487 l 0.408,-0.552"
       style="fill:#5d1f14;fill-opacity:1;fill-rule:nonzero;stroke:none;stroke-width:0.1"
       id="path148" /><path
       d="m 753.815,0 h -2.612 L 603.165,176.545 c 0.062,0.988 0.115,1.966 0.157,2.926 L 753.815,0 m -169.655,202.323 -2.617,0.007 -13.932,16.615 h 2.611 l 13.938,-16.622"
       style="fill:#893029;fill-opacity:1;fill-rule:nonzero;stroke:none;stroke-width:0.1"
       id="path150" /><path
       d="m 570.222,218.945 h -2.611 l -0.044,0.052 h 2.612 l 0.043,-0.052"
       style="fill:#5d1f14;fill-opacity:1;fill-rule:nonzero;stroke:none;stroke-width:0.1"
       id="path152" /><path
       d="m 793.322,0 h -2.74 L 602.72,200.454 c -0.07,0.629 -0.144,1.235 -0.221,1.821 l -1.489,0.004 -15.619,16.666 h 2.74 L 793.322,0"
       style="fill:#893029;fill-opacity:1;fill-rule:nonzero;stroke:none;stroke-width:0.1"
       id="path154" /><path
       d="m 588.131,218.945 h -2.74 l -0.518,0.552 h 2.741 l 0.517,-0.552"
       style="fill:#5d1f14;fill-opacity:1;fill-rule:nonzero;stroke:none;stroke-width:0.1"
       id="path156" /><path
       d="m -3.75195,12.25 235.73695,219 V 219.997 L -3.75195,-5.83594 V 12.25"
       style="fill:#6b3336;fill-opacity:1;fill-rule:nonzero;stroke:none;stroke-width:0.1"
       id="path158" /><path
       d="M -3.25195,12.032 V -4.66406 L 231.485,220.211 v 9.893 z m -0.5,-18.36794 -0.1961,0.03985 c -0.18437,0.07929 -0.3039,0.26015 -0.3039,0.46015 V 12.25 c 0,0.1391 0.05742,0.2711 0.15976,0.366 l 235.73719,219 c 0.146,0.136 0.358,0.172 0.54,0.092 0.183,-0.079 0.3,-0.259 0.3,-0.458 v -11.253 c 0,-0.137 -0.055,-0.267 -0.154,-0.361 L -3.40625,-6.19688 c -0.09492,-0.09101 -0.21914,-0.13906 -0.3457,-0.13906"
       style="fill:#7e331a;fill-opacity:1;fill-rule:nonzero;stroke:none;stroke-width:0.1"
       id="path160" /><path
       d="M 232.306,219.997 H 602.72 V 461.944 H 232.306 Z"
       style="fill:#d5d5c5;fill-opacity:1;fill-rule:nonzero;stroke:none;stroke-width:0.1"
       id="path162" /><path
       d="M 232.806,220.497 H 602.22 V 461.444 H 232.806 V 220.497 m 369.914,-1 H 232.306 c -0.277,0 -0.5,0.224 -0.5,0.5 v 241.947 c 0,0.277 0.223,0.5 0.5,0.5 H 602.72 c 0.276,0 0.5,-0.223 0.5,-0.5 V 219.997 c 0,-0.276 -0.224,-0.5 -0.5,-0.5"
       style="fill:#d5d6d6;fill-opacity:1;fill-rule:nonzero;stroke:none;stroke-width:0.1"
       id="path164" /><path
       d="m 232.306,219.996 v 10.447 H 602.72 V 219.996 H 232.306"
       style="fill:#6b3336;fill-opacity:1;fill-rule:nonzero;stroke:none;stroke-width:0.1"
       id="path166" /><path
       d="M 232.806,220.496 H 602.22 v 9.447 H 232.806 Z m 369.914,-1 H 232.306 c -0.276,0 -0.5,0.224 -0.5,0.5 v 10.447 c 0,0.277 0.224,0.5 0.5,0.5 H 602.72 c 0.276,0 0.5,-0.223 0.5,-0.5 v -10.447 c 0,-0.276 -0.224,-0.5 -0.5,-0.5"
       style="fill:#7e331a;fill-opacity:1;fill-rule:nonzero;stroke:none;stroke-width:0.1"
       id="path168" /><path
       d="M 271.22,219.997 H 563.046 V 410.612 H 271.22 Z"
       style="fill:#bddfda;fill-opacity:1;fill-rule:nonzero;stroke:none;stroke-width:0.1"
       id="path170" /><path
       d="M 271.72,220.497 H 562.546 V 410.112 H 271.72 V 220.497 m 291.326,-1 H 271.22 c -0.277,0 -0.5,0.224 -0.5,0.5 v 190.615 c 0,0.277 0.223,0.5 0.5,0.5 h 291.826 c 0.276,0 0.5,-0.223 0.5,-0.5 V 219.997 c 0,-0.276 -0.224,-0.5 -0.5,-0.5"
       style="fill:#888d8f;fill-opacity:1;fill-rule:nonzero;stroke:none;stroke-width:0.1"
       id="path172" /><path
       d="M 424.249,233.997 H 559.366 V 375.766 H 424.249 Z"
       style="fill:#8dd0d8;fill-opacity:1;fill-rule:nonzero;stroke:none;stroke-width:0.1"
       id="path174" /><path
       d="m 275.232,233.997 h 135.35 v 141.769 h -135.35 z"
       style="fill:#8dd0d8;fill-opacity:1;fill-rule:nonzero;stroke:none;stroke-width:0.1"
       id="path176" /><path
       d="m 419.883,384.908 v 25.676 H 563.046 V 384.908 H 419.883 m -148.663,0 v 25.676 H 414.383 V 384.908 H 271.22 m -8.675,37.037 V 219.497 h 8.675 V 379.394 H 414.383 V 219.751 h 5.5 V 379.394 H 563.046 V 219.497 h 8.675 V 421.945 H 262.545"
       style="fill:#a75240;fill-opacity:1;fill-rule:nonzero;stroke:none;stroke-width:0.1"
       id="path178" /><path
       d="m 271.72,385.408 h 142.163 v 24.676 H 271.72 v -24.676 m 142.663,-1 H 271.22 c -0.276,0 -0.5,0.224 -0.5,0.5 v 25.676 c 0,0.276 0.224,0.5 0.5,0.5 h 143.163 c 0.276,0 0.5,-0.224 0.5,-0.5 v -25.676 c 0,-0.276 -0.224,-0.5 -0.5,-0.5 m 6,1 h 142.163 v 24.676 H 420.383 v -24.676 m 142.663,-1 H 419.883 c -0.276,0 -0.5,0.224 -0.5,0.5 v 25.676 c 0,0.276 0.224,0.5 0.5,0.5 h 143.163 c 0.276,0 0.5,-0.224 0.5,-0.5 v -25.676 c 0,-0.276 -0.224,-0.5 -0.5,-0.5 m 0.5,-164.411 h 7.675 V 421.445 H 263.045 V 219.997 h 7.675 v 159.397 c 0,0.277 0.224,0.5 0.5,0.5 h 143.163 c 0.276,0 0.5,-0.223 0.5,-0.5 V 220.251 h 4.5 v 159.143 c 0,0.277 0.224,0.5 0.5,0.5 h 143.163 c 0.276,0 0.5,-0.223 0.5,-0.5 V 219.997 m 8.175,-1 h -8.675 c -0.277,0 -0.5,0.224 -0.5,0.5 V 378.894 H 420.383 V 219.751 c 0,-0.276 -0.224,-0.5 -0.5,-0.5 h -5.5 c -0.277,0 -0.5,0.224 -0.5,0.5 V 378.894 H 271.72 V 219.497 c 0,-0.276 -0.224,-0.5 -0.5,-0.5 h -8.675 c -0.276,0 -0.5,0.224 -0.5,0.5 v 202.448 c 0,0.277 0.224,0.5 0.5,0.5 h 309.176 c 0.276,0 0.5,-0.223 0.5,-0.5 V 219.497 c 0,-0.276 -0.224,-0.5 -0.5,-0.5"
       style="fill:#7e331a;fill-opacity:1;fill-rule:nonzero;stroke:none;stroke-width:0.1"
       id="path180" /><path
       d="m 414.249,219.751 h -142.75 v 10.024 h 142.75 v -10.024"
       style="fill:#a75240;fill-opacity:1;fill-rule:nonzero;stroke:none;stroke-width:0.1"
       id="path182" /><path
       d="m 271.999,220.251 h 141.75 v 9.024 h -141.75 z m 142.25,-1 h -142.75 c -0.276,0 -0.5,0.224 -0.5,0.5 v 10.024 c 0,0.277 0.224,0.5 0.5,0.5 h 142.75 c 0.276,0 0.5,-0.223 0.5,-0.5 v -10.024 c 0,-0.276 -0.224,-0.5 -0.5,-0.5"
       style="fill:#7e331a;fill-opacity:1;fill-rule:nonzero;stroke:none;stroke-width:0.1"
       id="path184" /><path
       d="m 563.249,219.751 h -143.5 v 10.024 h 143.5 v -10.024"
       style="fill:#a75240;fill-opacity:1;fill-rule:nonzero;stroke:none;stroke-width:0.1"
       id="path186" /><path
       d="m 420.249,220.251 h 142.5 v 9.024 h -142.5 z m 143,-1 h -143.5 c -0.276,0 -0.5,0.224 -0.5,0.5 v 10.024 c 0,0.277 0.224,0.5 0.5,0.5 h 143.5 c 0.276,0 0.5,-0.223 0.5,-0.5 v -10.024 c 0,-0.276 -0.224,-0.5 -0.5,-0.5"
       style="fill:#7e331a;fill-opacity:1;fill-rule:nonzero;stroke:none;stroke-width:0.1"
       id="path188" /><path
       d="m 559.366,389.381 v 16.481 H 424.249 v -16.481 h 135.117"
       style="fill:#8dd0d8;fill-opacity:1;fill-rule:nonzero;stroke:none;stroke-width:0.1"
       id="path190" /><path
       d="m 410.582,389.381 v 16.481 h -135.35 v -16.481 h 135.35"
       style="fill:#8dd0d8;fill-opacity:1;fill-rule:nonzero;stroke:none;stroke-width:0.1"
       id="path192" /><path
       d="m 232.806,416.427 v 45.017 H 602.22 v -40.439 c -5.092,23.777 -30.638,25.579 -30.638,25.579 h -306 c -20.527,-4.516 -29.164,-19.39 -32.776,-30.157"
       style="fill:#c0c1ab;fill-opacity:1;fill-rule:nonzero;stroke:none;stroke-width:0.1"
       id="path194" /><path
       d="m 232.306,414.86 v 47.084 H 602.72 v -43.826 c -0.134,0.997 -0.301,1.958 -0.5,2.887 v 40.439 H 232.806 v -45.017 c -0.179,-0.533 -0.345,-1.055 -0.5,-1.567"
       style="fill:#c0c2bb;fill-opacity:1;fill-rule:nonzero;stroke:none;stroke-width:0.1"
       id="path196" /><path
       d="m 408.999,319.5 c 0,-2.485 -2.015,-4.5 -4.5,-4.5 -2.485,0 -4.5,2.015 -4.5,4.5 0,2.485 2.015,4.5 4.5,4.5 2.485,0 4.5,-2.015 4.5,-4.5"
       style="fill:#a75158;fill-opacity:1;fill-rule:nonzero;stroke:none;stroke-width:0.1"
       id="path198" /><path
       d="m 404.499,323.5 c -2.205,0 -4,-1.794 -4,-4 0,-2.206 1.795,-4 4,-4 2.206,0 4,1.794 4,4 0,2.206 -1.794,4 -4,4 m 0,-9 c -2.757,0 -5,2.243 -5,5 0,2.757 2.243,5 5,5 2.757,0 5,-2.243 5,-5 0,-2.757 -2.243,-5 -5,-5"
       style="fill:#888d8f;fill-opacity:1;fill-rule:nonzero;stroke:none;stroke-width:0.1"
       id="path200" /><path
       d="m 408.999,290 c 0,-2.485 -2.015,-4.5 -4.5,-4.5 -2.485,0 -4.5,2.015 -4.5,4.5 0,2.485 2.015,4.5 4.5,4.5 2.485,0 4.5,-2.015 4.5,-4.5"
       style="fill:#a75158;fill-opacity:1;fill-rule:nonzero;stroke:none;stroke-width:0.1"
       id="path202" /><path
       d="m 404.499,294 c -2.206,0 -4,-1.794 -4,-4 0,-2.206 1.794,-4 4,-4 2.206,0 4,1.794 4,4 0,2.206 -1.794,4 -4,4 z m 0,-9 c -2.757,0 -5,2.243 -5,5 0,2.757 2.243,5 5,5 2.757,0 5,-2.243 5,-5 0,-2.757 -2.243,-5 -5,-5"
       style="fill:#888d8f;fill-opacity:1;fill-rule:nonzero;stroke:none;stroke-width:0.1"
       id="path204" /><path
       d="m 406.749,290.625 c 0,-1.311 -1.064,-2.375 -2.375,-2.375 -1.312,0 -2.375,1.064 -2.375,2.375 v 28.25 c 0,1.312 1.063,2.375 2.375,2.375 1.311,0 2.375,-1.063 2.375,-2.375 v -28.25"
       style="fill:#a75158;fill-opacity:1;fill-rule:nonzero;stroke:none;stroke-width:0.1"
       id="path206" /><path
       d="m 404.374,320.75 c -1.034,0 -1.875,-0.841 -1.875,-1.875 v -28.25 c 0,-1.034 0.841,-1.875 1.875,-1.875 1.034,0 1.875,0.841 1.875,1.875 v 28.25 c 0,1.034 -0.841,1.875 -1.875,1.875 m 0,-33 c -1.586,0 -2.875,1.29 -2.875,2.875 v 28.25 c 0,1.585 1.289,2.875 2.875,2.875 1.585,0 2.875,-1.29 2.875,-2.875 v -28.25 c 0,-1.585 -1.29,-2.875 -2.875,-2.875"
       style="fill:#888d8f;fill-opacity:1;fill-rule:nonzero;stroke:none;stroke-width:0.1"
       id="path208" /><path
       d="m 404.249,301.166 c -0.737,0 -1.335,0.598 -1.335,1.335 v 15.884 c 0,0.736 0.598,1.335 1.335,1.335 0.737,0 1.336,-0.599 1.336,-1.335 v -15.884 c 0,-0.737 -0.599,-1.335 -1.336,-1.335"
       style="fill:#e38e94;fill-opacity:1;fill-rule:nonzero;stroke:none;stroke-width:0.1"
       id="path210" /><path
       d="m 432.499,319.5 c 0,-2.485 -2.015,-4.5 -4.5,-4.5 -2.485,0 -4.5,2.015 -4.5,4.5 0,2.485 2.015,4.5 4.5,4.5 2.485,0 4.5,-2.015 4.5,-4.5"
       style="fill:#a75158;fill-opacity:1;fill-rule:nonzero;stroke:none;stroke-width:0.1"
       id="path212" /><path
       d="m 427.999,323.5 c -2.206,0 -4,-1.794 -4,-4 0,-2.206 1.794,-4 4,-4 2.206,0 4,1.794 4,4 0,2.206 -1.794,4 -4,4 m 0,-9 c -2.757,0 -5,2.243 -5,5 0,2.757 2.243,5 5,5 2.757,0 5,-2.243 5,-5 0,-2.757 -2.243,-5 -5,-5"
       style="fill:#888d8f;fill-opacity:1;fill-rule:nonzero;stroke:none;stroke-width:0.1"
       id="path214" /><path
       d="m 432.499,290 c 0,-2.485 -2.015,-4.5 -4.5,-4.5 -2.485,0 -4.5,2.015 -4.5,4.5 0,2.485 2.015,4.5 4.5,4.5 2.485,0 4.5,-2.015 4.5,-4.5"
       style="fill:#a75158;fill-opacity:1;fill-rule:nonzero;stroke:none;stroke-width:0.1"
       id="path216" /><path
       d="m 427.999,294 c -2.206,0 -4,-1.794 -4,-4 0,-2.206 1.794,-4 4,-4 2.206,0 4,1.794 4,4 0,2.206 -1.794,4 -4,4 z m 0,-9 c -2.757,0 -5,2.243 -5,5 0,2.757 2.243,5 5,5 2.757,0 5,-2.243 5,-5 0,-2.757 -2.243,-5 -5,-5"
       style="fill:#888d8f;fill-opacity:1;fill-rule:nonzero;stroke:none;stroke-width:0.1"
       id="path218" /><path
       d="m 430.249,290.625 c 0,-1.311 -1.063,-2.375 -2.375,-2.375 -1.312,0 -2.375,1.064 -2.375,2.375 v 28.25 c 0,1.312 1.063,2.375 2.375,2.375 1.312,0 2.375,-1.063 2.375,-2.375 v -28.25"
       style="fill:#a75158;fill-opacity:1;fill-rule:nonzero;stroke:none;stroke-width:0.1"
       id="path220" /><path
       d="m 427.874,320.75 c -1.034,0 -1.875,-0.841 -1.875,-1.875 v -28.25 c 0,-1.034 0.841,-1.875 1.875,-1.875 1.034,0 1.875,0.841 1.875,1.875 v 28.25 c 0,1.034 -0.841,1.875 -1.875,1.875 m 0,-33 c -1.585,0 -2.875,1.29 -2.875,2.875 v 28.25 c 0,1.585 1.29,2.875 2.875,2.875 1.585,0 2.875,-1.29 2.875,-2.875 v -28.25 c 0,-1.585 -1.29,-2.875 -2.875,-2.875"
       style="fill:#888d8f;fill-opacity:1;fill-rule:nonzero;stroke:none;stroke-width:0.1"
       id="path222" /><path
       d="m 427.749,301.166 c -0.737,0 -1.335,0.598 -1.335,1.335 v 15.884 c 0,0.736 0.598,1.335 1.335,1.335 0.737,0 1.336,-0.599 1.336,-1.335 v -15.884 c 0,-0.737 -0.599,-1.335 -1.336,-1.335"
       style="fill:#e38e94;fill-opacity:1;fill-rule:nonzero;stroke:none;stroke-width:0.1"
       id="path224" /><path
       d="M 410.916,389.249 H 275.249 v 17.333 h 135.667 v -17.333"
       style="fill:#8dd0d8;fill-opacity:1;fill-rule:nonzero;stroke:none;stroke-width:0.1"
       id="path226" /><path
       d="M 558.916,389.249 H 423.249 v 17.333 h 135.667 v -17.333"
       style="fill:#8dd0d8;fill-opacity:1;fill-rule:nonzero;stroke:none;stroke-width:0.1"
       id="path228" /><path
       d="m 422.004,54.3641 c -13.008,0 -20.21,0.7121 -20.21,0.7121 -0.181,0.0129 -0.365,0.025 -0.546,0.0379 l 7.284,147.6669 17.437,-0.046 7.31,-148.2018 c -4.135,-0.1211 -7.899,-0.1691 -11.275,-0.1691 m 13.275,0.232 -7.307,148.1339 17.438,-0.045 21.589,-145.8959 c -12.055,-1.2352 -22.704,-1.8871 -31.72,-2.193 m -36.027,0.6598 c -11.174,0.8203 -21.667,1.9742 -31.473,3.4211 l 21.331,144.154 17.419,-0.045 -7.277,-147.5301 m 69.738,1.741 -21.558,145.6821 17.418,-0.045 34.879,-141.4231 c -0.972,-0.1718 -1.959,-0.339 -2.949,-0.498 -9.899,-1.5899 -19.191,-2.8008 -27.79,-3.716 m -103.189,1.9773 c -10.834,1.6567 -20.846,3.677 -30.102,6.0086 l 34.01,137.8992 17.38,-0.046 -21.288,-143.8618 m 135.898,2.5977 -34.788,141.0571 17.381,-0.046 45.873,-132.8568 c -8.505,-3.4024 -17.96,-6.1699 -28.466,-8.1543 m -167.937,3.9062 c -10.169,2.6399 -19.405,5.659 -27.792,8.986 l 44.357,128.4679 17.324,-0.045 -33.889,-137.4089 m 198.257,5.0059 -45.608,132.094 17.324,-0.045 52.59,-118.465 c -7.049,-5.1461 -15.111,-9.743 -24.306,-13.584 m -227.907,4.7281 c -9.143,3.732 -17.26,7.8391 -24.448,12.2149 l 51.298,115.556 17.251,-0.045 -44.101,-127.7259 m 253.857,10.0809 -52.043,117.234 17.257,-0.045 53.623,-98.83 C 571.555,97.0809 565.33,90.8809 557.969,85.293 m -280.022,3.1949 c -7.761,4.8723 -14.407,10.0613 -20.101,15.4471 l 53.769,99.098 17.162,-0.045 -50.83,-114.5001 m 300.202,16.8801 -52.688,97.108 17.171,-0.045 48.436,-75.536 c -3.392,-7.371 -7.637,-14.636 -12.919,-21.527 m -321.797,0.006 c -6.068,5.95 -10.987,12.108 -14.974,18.32 l 50.907,79.389 17.058,-0.044 -52.991,-97.665 m -16.148,20.195 c -4.192,6.862 -7.267,13.765 -9.484,20.462 l 42.249,57.103 16.943,-0.044 -49.708,-77.521 m 351.842,3.506 -47.034,73.35 17.074,-0.044 37.446,-50.611 c -1.746,-7.451 -4.175,-15.112 -7.486,-22.695 m -362.073,19.309 c -2.319,7.632 -3.552,14.958 -4.107,21.643 l 27.803,33.157 16.818,-0.044 -40.514,-54.756 m 370.138,5.964 -35.533,48.026 16.965,-0.044 21.622,-25.785 c -0.438,-6.895 -1.379,-14.407 -3.054,-22.197 M 225.666,172.9 c -0.51,9.043 0.188,16.723 0.998,22.097 l 7.719,8.237 16.682,-0.043 -25.399,-30.291 m 377.656,6.571 -19.162,22.852 16.85,-0.044 1.71,-1.825 c 0.626,-5.577 0.966,-12.781 0.602,-20.983 m -376.047,19.102 c 0.575,2.998 1.067,4.677 1.067,4.677 l 3.308,-0.009 -4.375,-4.668"
       style="fill:#c97157;fill-opacity:1;fill-rule:nonzero;stroke:none;stroke-width:0.1"
       id="path358" /><path
       d="m 226.664,194.997 c 0.203,1.342 0.411,2.536 0.611,3.576 l 4.375,4.668 2.733,-0.007 -7.719,-8.237"
       style="fill:#a94a3c;fill-opacity:1;fill-rule:nonzero;stroke:none;stroke-width:0.1"
       id="path360" /><path
       d="m 225.866,170.027 c -0.08,0.969 -0.147,1.933 -0.2,2.873 l 25.399,30.291 2.604,-0.007 -27.803,-33.157"
       style="fill:#a94a3c;fill-opacity:1;fill-rule:nonzero;stroke:none;stroke-width:0.1"
       id="path362" /><path
       d="m 230.72,146.031 c -0.26,0.786 -0.509,1.572 -0.747,2.353 l 40.514,54.756 2.482,-0.006 -42.249,-57.103"
       style="fill:#a94a3c;fill-opacity:1;fill-rule:nonzero;stroke:none;stroke-width:0.1"
       id="path364" /><path
       d="m 241.378,123.694 c -0.401,0.625 -0.792,1.25 -1.174,1.875 l 49.708,77.521 2.373,-0.007 -50.907,-79.389"
       style="fill:#a94a3c;fill-opacity:1;fill-rule:nonzero;stroke:none;stroke-width:0.1"
       id="path366" /><path
       d="m 257.846,103.935 c -0.502,0.475 -1.006,0.96 -1.494,1.439 l 52.991,97.665 2.272,-0.006 -53.769,-99.098"
       style="fill:#a94a3c;fill-opacity:1;fill-rule:nonzero;stroke:none;stroke-width:0.1"
       id="path368" /><path
       d="m 279.664,87.427 c -0.579,0.3519 -1.15,0.705 -1.717,1.0609 l 50.83,114.5001 2.185,-0.005 -51.298,-115.556"
       style="fill:#a94a3c;fill-opacity:1;fill-rule:nonzero;stroke:none;stroke-width:0.1"
       id="path370" /><path
       d="m 305.97,74.4641 c -0.623,0.2468 -1.245,0.4968 -1.858,0.748 l 44.101,127.7259 2.114,-0.006 L 305.97,74.4641"
       style="fill:#a94a3c;fill-opacity:1;fill-rule:nonzero;stroke:none;stroke-width:0.1"
       id="path372" /><path
       d="m 335.699,64.9828 c -0.649,0.1641 -1.295,0.3293 -1.937,0.4953 l 33.889,137.4089 2.058,-0.005 -34.01,-137.8992"
       style="fill:#a94a3c;fill-opacity:1;fill-rule:nonzero;stroke:none;stroke-width:0.1"
       id="path374" /><path
       d="m 367.779,58.677 c -0.666,0.098 -1.318,0.196 -1.978,0.2972 l 21.288,143.8618 2.021,-0.005 -21.331,-144.154"
       style="fill:#a94a3c;fill-opacity:1;fill-rule:nonzero;stroke:none;stroke-width:0.1"
       id="path376" /><path
       d="m 401.248,55.1141 c -0.674,0.0461 -1.328,0.0929 -1.996,0.1418 l 7.277,147.5301 2.003,-0.005 -7.284,-147.6669"
       style="fill:#a94a3c;fill-opacity:1;fill-rule:nonzero;stroke:none;stroke-width:0.1"
       id="path378" /><path
       d="m 433.279,54.5332 -7.31,148.2018 2.003,-0.005 7.307,-148.1339 c -0.674,-0.0231 -1.345,-0.0441 -2,-0.0629"
       style="fill:#a94a3c;fill-opacity:1;fill-rule:nonzero;stroke:none;stroke-width:0.1"
       id="path380" /><path
       d="M 466.999,56.7891 445.41,202.685 447.432,202.679 468.99,56.9969 c -0.67,-0.0707 -1.33,-0.1399 -1.991,-0.2078"
       style="fill:#a94a3c;fill-opacity:1;fill-rule:nonzero;stroke:none;stroke-width:0.1"
       id="path382" /><path
       d="m 499.729,61.2109 -34.879,141.4231 2.061,-0.005 34.788,-141.0571 c -0.654,-0.1239 -1.307,-0.2438 -1.97,-0.361"
       style="fill:#a94a3c;fill-opacity:1;fill-rule:nonzero;stroke:none;stroke-width:0.1"
       id="path384" /><path
       d="m 530.165,69.7262 -45.873,132.8568 2.119,-0.005 45.608,-132.094 c -0.615,-0.257 -1.228,-0.507 -1.854,-0.7578"
       style="fill:#a94a3c;fill-opacity:1;fill-rule:nonzero;stroke:none;stroke-width:0.1"
       id="path386" /><path
       d="m 556.325,84.068 -52.59,118.465 2.191,-0.006 52.043,-117.234 c -0.543,-0.4129 -1.088,-0.8188 -1.644,-1.225"
       style="fill:#a94a3c;fill-opacity:1;fill-rule:nonzero;stroke:none;stroke-width:0.1"
       id="path388" /><path
       d="m 576.806,103.652 -53.623,98.83 2.278,-0.006 52.688,-97.108 c -0.439,-0.573 -0.889,-1.148 -1.343,-1.716"
       style="fill:#a94a3c;fill-opacity:1;fill-rule:nonzero;stroke:none;stroke-width:0.1"
       id="path390" /><path
       d="m 591.068,126.895 -48.436,75.536 2.38,-0.006 47.034,-73.35 c -0.317,-0.726 -0.644,-1.456 -0.978,-2.18"
       style="fill:#a94a3c;fill-opacity:1;fill-rule:nonzero;stroke:none;stroke-width:0.1"
       id="path392" /><path
       d="m 599.532,151.77 -37.446,50.611 2.492,-0.007 35.533,-48.026 c -0.184,-0.855 -0.377,-1.716 -0.579,-2.578"
       style="fill:#a94a3c;fill-opacity:1;fill-rule:nonzero;stroke:none;stroke-width:0.1"
       id="path394" /><path
       d="m 603.165,176.545 -21.622,25.785 2.617,-0.007 19.162,-22.852 c -0.042,-0.96 -0.095,-1.938 -0.157,-2.926"
       style="fill:#a94a3c;fill-opacity:1;fill-rule:nonzero;stroke:none;stroke-width:0.1"
       id="path396" /><path
       d="m 602.72,200.454 -1.71,1.825 1.489,-0.004 c 0.077,-0.586 0.151,-1.192 0.221,-1.821"
       style="fill:#a94a3c;fill-opacity:1;fill-rule:nonzero;stroke:none;stroke-width:0.1"
       id="path398" /></g></svg>
