<?xml version="1.0" encoding="UTF-8"?>
<!DOCTYPE svg PUBLIC "-//W3C//DTD SVG 1.1//EN" "http://www.w3.org/Graphics/SVG/1.1/DTD/svg11.dtd">
<svg version="1.1" xmlns="http://www.w3.org/2000/svg" xmlns:xlink="http://www.w3.org/1999/xlink" x="0" y="0" width="743" height="989" viewBox="0, 0, 743, 989">
  <g id="Layer_1">
    <path d="M433.036,800.754 C462.159,809.033 471.993,802.119 497.831,789.958 C528.432,775.551 568.575,697.758 585.723,682.415 C618.432,653.158 676.032,645.961 739.301,676.638 C695.834,638.751 634.631,624.365 569.834,645.961 C534.567,657.718 505.616,694.769 478.028,721.558 C458.95,740.078 432.477,718.784 416.836,694.558 C401.114,670.209 379.995,711.179 354.551,719.223 C320.918,729.855 330.551,744.076 355.635,757.403 C382.647,771.75 403.905,792.474 433.036,800.754" fill="#E3B674"/>
    <path d="M547.897,658.142 C566.999,653.84 570.25,649.361 580.635,649.551 C586.387,649.656 604.042,645.961 607.633,651.361 C611.225,656.761 604.311,670.336 598.627,671.165 C610.75,669.583 636.061,658.283 648.424,657.236 C673.901,655.078 719.077,659.011 739.301,676.638 C695.834,638.751 634.633,624.365 569.838,645.958 C561.911,648.601 552.04,651.717 547.897,658.142" fill="#A58964"/>
    <path d="M433.036,800.754 C462.159,809.033 474.436,807.951 497.829,789.958 C535.801,760.746 554.655,709.922 589.381,679.961 C568.047,671.299 545.641,700.306 533.832,716.158 C525.797,726.947 500.956,756.601 492.432,762.958 C472.036,778.166 432.416,770.256 418.631,746.758 C404.655,722.932 388.178,717.873 360.17,719.814 C325.834,722.197 330.131,743.85 355.651,757.41 C382.657,771.758 403.909,792.474 433.036,800.754" fill="#E9C89B"/>
    <path d="M433.036,800.754 C462.159,809.033 480.436,807.951 496.036,794.757 C524.497,770.681 568.575,697.758 585.723,682.415 C618.432,653.158 676.032,645.961 739.301,676.638 C695.834,638.751 634.631,624.365 569.834,645.961 C534.567,657.718 505.616,694.769 478.028,721.558 C458.95,740.078 432.477,718.784 416.836,694.558 C401.114,670.209 379.995,711.179 354.551,719.223 C320.918,729.855 330.551,744.076 355.635,757.403 C382.647,771.75 403.905,792.474 433.036,800.754 z" fill-opacity="0" stroke="#1A1919" stroke-width="5.669" stroke-linecap="round" stroke-linejoin="round"/>
    <path d="M356.231,807.367 C347.583,818.628 323.833,836.171 307.633,834.961 C293.786,833.927 278.23,828.351 268.027,815.756 C258.583,804.097 224.24,764.765 206.231,739.561 C190.074,716.949 149.431,690.226 137.826,674.754 C110.828,638.751 96.443,568.558 107.244,530.758 C116.694,497.689 121.647,494.771 146.837,469.565 C148.16,458.484 148.336,462.076 147.865,454.567 C146.494,432.686 125.221,431.877 125.231,420.958 C125.249,401.291 124.249,381.351 128.835,357.054 C137.838,309.365 156.796,240.627 191.835,219.351 C253.575,181.86 289.028,276.951 301.635,320.161 C310.883,351.855 325.077,373.553 339.44,401.168 C350.799,423.011 375.442,437.889 391.641,455.165 C424.038,474.965 433.407,496.33 440.239,507.365 C463.633,545.162 465.317,601.07 440.239,636.969 C420.618,665.054 409.848,739.301 388.036,768.369 C382.637,775.564 373.993,784.242 356.231,807.367" fill="#E3B674"/>
    <path d="M366.432,812.763 C357.784,824.024 323.833,836.171 307.633,834.961 C293.786,833.927 278.23,828.351 268.025,815.756 C235.926,776.135 195.542,737.99 177.331,689.256 C172.258,675.676 164.821,663.076 159.437,649.551 C162.342,650.672 151.228,614.592 154.037,615.357 C154.968,597.053 152.945,568.845 154.037,550.564 C154.59,552.699 164.454,583.784 164.837,588.361 C164.902,588.351 164.824,546.958 168.428,543.357 C169.645,519.556 179.026,554.516 184.626,532.558 C187.012,523.199 193.389,522.433 192.053,513.296 C189.717,497.328 191.287,478.453 195.354,462.888 C201.505,472.286 200.529,484.858 207.671,492.346 C206.305,490.912 209.981,459.264 210.396,454.989 C211.554,443.025 213.43,429.814 223.709,422.318 C229.807,439.921 222.354,460.41 236.832,476.533 C249.213,465.121 248.531,431.758 262.026,428.158 C258.426,443.461 275.995,510.648 289.077,518.373 C292.142,512.582 296.22,511.183 301.364,509.435 C307.926,535.258 336.276,547.998 339.432,590.158 C341.764,621.285 347.534,636.958 354.165,677.922 C367.012,700.394 398.741,716.506 401.331,744.424 C403.922,772.359 381.143,793.607 366.432,812.763" fill="#E9C89B"/>
    <path d="M366.432,812.763 C357.784,824.024 323.833,836.171 307.633,834.961 C293.786,833.927 278.23,828.351 268.025,815.756 C254.371,798.902 235.116,785.113 223.467,766.832 C213.641,751.416 204.857,734.853 195.134,719.16 C200.775,724.441 227.293,749.728 235.021,757.263 C244.775,766.772 252.028,769.258 263.227,775.551 C282.433,786.351 307.965,790.808 325.03,780.951 C344.393,769.771 351.768,760.16 354.434,734.763 C355.319,726.345 357.153,687.277 360.434,679.556 C368.008,661.736 400.247,732.73 401.331,744.424 C403.922,772.359 381.143,793.607 366.432,812.763" fill="#DCBE91"/>
    <path d="M262.935,301.265 C261.126,294.054 265.633,280.558 271.033,275.158 C276.433,269.758 258.918,260.259 248.837,253.558 C238.479,246.674 234.003,239.01 220.245,237.867 C205.57,236.648 191.923,241.942 181.805,252.595 C177.57,257.053 172.216,263.293 171.209,269.399 C178.335,282.351 179.226,286.858 179.226,299.454 C171.128,286.858 162.569,281.465 156.521,284.994 C149.852,288.887 141.845,309.14 138.436,315.96 C136.292,303.817 157.554,261.32 163.487,251.15 C170.634,238.898 179.518,226.832 191.84,219.347 C217.005,204.068 241.746,212.003 260.156,233.199 C269.465,243.918 276.555,256.567 282.657,269.322 C285.287,274.82 292.632,289.558 298.031,308.763 C282.737,279.651 271.938,287.765 262.935,301.265" fill="#C99F62"/>
    <path d="M364.038,812.763 C353.301,825.255 334.034,836.758 307.633,834.961 C293.779,834.019 278.23,828.351 268.027,815.756 C258.583,804.097 224.24,764.765 206.231,739.561 C190.074,716.949 149.431,690.226 137.826,674.754 C110.828,638.751 96.443,568.558 107.244,530.758 C116.694,497.689 121.647,494.771 146.837,469.565 C148.16,458.484 148.336,462.076 147.865,454.567 C146.494,432.686 125.221,431.877 125.231,420.958 C125.249,401.291 127.506,387.883 130.63,363.358 C136.935,313.858 156.796,240.627 191.835,219.351 C253.575,181.86 292.621,278.751 305.228,321.958 C314.475,353.655 325.077,373.553 339.44,401.168 C350.799,423.011 377.231,440.761 391.641,455.165 C424.038,474.965 433.401,491.506 440.231,502.541 C463.626,540.338 465.317,601.07 440.239,636.969 C420.618,665.054 409.848,739.301 388.036,768.369 C382.637,775.564 386.235,786.941 364.038,812.763 z" fill-opacity="0" stroke="#1A1919" stroke-width="5.669" stroke-linecap="round" stroke-linejoin="round"/>
    <path d="M292.632,216.651 C293.975,233.48 285.273,248.977 277.39,263.156 C271.835,273.147 264.192,291.08 256.63,298.565 C251.864,303.279 241.376,312.114 234.465,315.384 C224.878,319.912 218.905,315.686 209.83,311.158 C189.705,301.114 181.995,283.585 168.442,268.323 C151.337,249.061 143.836,233.146 143.225,212.158 C142.864,199.797 147.466,173.63 150.433,161.765 C156.429,137.781 163.362,133.338 180.131,122.147 C199.03,109.537 230.537,106.837 248.531,118.544 C269.446,132.142 277.491,145.206 282.737,163.558 C288.137,182.458 291.775,205.935 292.632,216.651" fill="#E3B674"/>
    <path d="M176.54,279.64 C165.141,264.941 146.83,244.544 145.033,224.74 C143.774,210.875 147.721,179.747 152.23,160.851 C157.053,140.636 163.369,132.409 173.84,123.037 C181.786,115.928 197.522,113.488 213.433,113.144 C231.753,112.75 250.311,115.492 257.535,123.037 C271.188,137.296 271.938,140.158 278.23,155.451 C285.708,173.627 294.44,205 294.44,215.751 C294.44,234.647 283.628,258.044 269.238,279.64" fill-opacity="0" stroke="#1A1919" stroke-width="5.669" stroke-linecap="round" stroke-linejoin="round"/>
    <path d="M161.273,55.607 C167.835,70.646 170.97,86.931 175.983,102.495 C179.472,113.33 197.161,137.092 182.692,140.664 C177.432,141.961 167.876,138.646 162.137,132.958 C150.034,120.963 114.356,112.015 102.728,99.654 C82.775,78.444 80.032,46.361 89.226,18.661 C114.228,15.412 152.286,35.005 161.273,55.607" fill="#A58964"/>
    <path d="M163.028,64.557 C169.59,79.597 170.97,86.931 175.983,102.495 C178.133,109.171 191.306,123.606 193.63,133.861 C195.078,140.249 188.85,143.898 183.735,146.458 C178.335,149.158 164.272,135.946 158.533,130.258 C129.726,114.058 119.756,110.219 108.128,97.857 C88.174,76.648 89.229,43.84 99.136,29.451 C116.24,19.54 154.04,43.959 163.028,64.557" fill="#E3B674"/>
    <path d="M167.231,140.748 C151.63,125.164 122.22,112.31 108.128,100.557 C86.531,82.55 80.032,46.361 89.226,18.661 C114.228,15.412 152.288,35.005 161.273,55.607 C170.138,75.931 180.167,112.268 188.231,120.963" fill-opacity="0" stroke="#1A1919" stroke-width="5.669" stroke-linecap="round" stroke-linejoin="round"/>
    <path d="M320.538,80.771 C309.127,93.639 302.812,100.899 290.837,113.154 C282.039,122.158 267.637,138.537 250.337,132.065 C236.211,126.777 244.153,109.273 246.738,101.465 C251.887,85.918 257.975,68.361 264.101,53.097 C274.951,26.076 299.065,3.927 328.061,0.615 C341.524,21.934 335.446,63.952 320.538,80.771" fill="#A58964"/>
    <path d="M309.735,92.457 C293.052,111.273 294.19,107.807 286.328,115.854 C277.53,124.858 263.132,143.927 245.832,137.451 C231.706,132.167 245.041,114.673 247.626,106.865 C252.775,91.318 255,77.119 261.126,61.857 C271.978,34.833 294.44,15.043 318.739,17.744 C337.639,26.75 324.643,75.639 309.735,92.457" fill="#E3B674"/>
    <path d="M239.234,120.337 C249.977,103.159 254.209,70.558 262.033,51.072 C272.884,24.047 298.733,7.569 327.729,4.257 C341.192,25.576 330.76,63.57 318.725,82.55 C301.619,109.537 278.523,122.745 264.73,140.14" fill-opacity="0" stroke="#1A1919" stroke-width="5.669" stroke-linecap="round" stroke-linejoin="round"/>
    <path d="M181.634,165.344 C189.441,165.344 189.147,178.524 181.94,177.926 C173.969,177.265 176.799,165.344 181.634,165.344" fill="#1A1919"/>
    <path d="M253.638,163.551 C262.03,163.551 262.335,175.848 254.237,176.741 C248.583,177.364 246.389,163.551 253.638,163.551" fill="#1A1919"/>
    <path d="M161.233,653.158 C178.943,698.713 203.566,727.734 209.83,737.754 C218.833,752.158 234.736,779.097 240.432,791.751 C248.915,810.595 257.83,832.424 256.63,852.958 C253.026,872.758 233.961,865.347 220.628,869.154 C215.008,870.761 145.938,879.955 119.832,886.258 C100.515,890.92 66.726,898.851 37.027,918.658 C34.63,911.746 37.931,903.361 44.236,894.357 C32.533,901.551 28.036,901.551 17.238,908.761 C17.224,905.158 17.224,894.357 26.228,884.465 C23.187,881.417 19.033,888.054 2.834,894.357 C10.042,844.857 85.105,846.035 101.837,842.158 C123.723,837.082 171.573,828.469 184.626,827.751 C194.867,808.992 167.809,740.106 164.837,734.165 C148.625,701.751 123.435,660.365 118.035,636.958" fill="#E3B674"/>
    <path d="M37.027,918.658 C34.63,911.746 37.931,903.361 44.236,894.357 C32.533,901.551 28.036,901.551 17.238,908.761 C17.224,905.158 17.224,894.357 26.228,884.465 C23.187,881.417 19.033,888.054 2.834,894.357 C5.109,878.727 15.199,866.834 28.697,859.286 C35.377,855.553 42.626,852.894 49.968,850.803 C52.531,850.072 58.141,847.488 60.656,848.605 C66.283,851.109 65.835,853.857 61.579,855.974 C72.126,860.165 77.524,864.658 72.395,870.965 C80.224,875.458 87.503,875.613 89.228,879.064 C94.628,889.861 84.801,895.42 76.538,898.857 C62.808,904.567 49.462,910.365 37.027,918.658" fill="#896F46"/>
    <path d="M161.233,653.158 C178.943,698.713 203.566,727.734 209.83,737.754 C218.833,752.158 234.736,779.097 240.432,791.751 C248.915,810.595 257.83,832.424 256.63,852.958 C253.026,872.758 233.961,865.347 220.628,869.154 C215.008,870.761 145.938,879.955 119.832,886.258 C100.515,890.92 66.726,898.851 37.027,918.658 C34.63,911.746 37.931,903.361 44.236,894.357 C32.533,901.551 28.036,901.551 17.238,908.761 C17.224,905.158 17.224,894.357 26.228,884.465 C23.187,881.417 19.033,888.054 2.834,894.357 C10.042,844.857 85.105,846.035 101.837,842.158 C123.723,837.082 171.573,828.469 184.626,827.751 C194.867,808.992 169.604,745.506 166.631,739.564 C150.419,707.15 123.435,658.568 118.035,635.162 M146.83,456.961 C141.032,478.318 130.63,557.758 152.228,584.758" fill-opacity="0" stroke="#1A1919" stroke-width="5.669" stroke-linecap="round" stroke-linejoin="round"/>
    <path d="M146.83,326.451 C136.935,355.258 122.544,419.151 123.435,442.558 C124.572,472.451 129.817,475.088 134.235,484.865 C146.842,512.765 165.149,536.285 183.735,558.665 C181.926,573.958 183.723,587.458 192.726,600.958 C194.535,590.158 196.599,586.652 198.126,583.851 C197.792,592.728 206.841,617.179 217.037,616.265 C212.53,608.165 214.165,596.015 216.335,591.079 C224.202,598.701 223.421,612.896 238.809,611.871 C232.382,604.087 228.222,590.566 228.728,580.261 C232.196,588.263 243.003,597.357 250.326,585.662 C238.338,586.164 239.004,566.709 237.731,561.365 C233.235,542.465 220.011,536.411 212.53,531.65 C202.633,525.361 185.275,500.263 175.635,481.258 C169.964,470.082 168.428,451.456 168.428,444.354 C168.428,428.158 176.421,383.685 178.335,381.354" fill="#E3B674"/>
    <path d="M168.428,444.354 C168.428,418.49 176.61,393.244 179.189,367.696 C180.133,358.359 184.187,349.436 185.575,339.87 C187.21,328.609 171.511,313.893 162.137,307.554 C133.72,288.334 122.741,424.298 123.435,442.558 C124.572,472.451 129.817,475.088 134.235,484.865 C146.842,512.765 165.149,536.285 183.735,558.665 C181.926,573.958 183.723,587.458 192.726,600.958 C194.535,590.158 196.599,586.652 198.126,583.851 C197.792,592.728 206.841,617.179 217.037,616.265 C212.53,608.165 214.165,596.015 216.335,591.079 C224.202,598.701 223.421,612.896 238.809,611.871 C232.382,604.087 228.222,590.566 228.728,580.261 C232.196,588.263 243.003,597.357 250.326,585.662 C238.338,586.164 239.004,566.709 237.731,561.365 C233.235,542.465 220.011,536.411 212.53,531.65 C202.633,525.361 185.275,500.263 175.635,481.258 C169.964,470.082 168.428,451.456 168.428,444.354" fill="#E3B674"/>
    <path d="M389.827,455.151 C332.225,446.161 337.639,552.357 341.231,586.558" fill="#E3B674"/>
    <path d="M389.827,455.151 C332.225,446.161 337.639,552.357 341.231,586.558" fill-opacity="0" stroke="#1A1919" stroke-width="5.669" stroke-linecap="round" stroke-linejoin="round"/>
    <path d="M250.324,585.662 C234.337,586.333 241.62,565.415 235.031,557.758 C233.98,569.297 232.797,575.997 219.725,581.165 C217.406,582.082 211.765,586.599 209.853,586.625 C205.818,586.674 197.458,580.336 194.899,577.269 C191.438,573.121 189.629,569.008 187.326,560.458 C172.937,569.461 189.135,593.761 192.726,600.951 C194.535,590.158 196.599,586.652 198.126,583.851 C197.792,592.728 206.841,617.179 217.037,616.265 C212.53,608.165 214.165,596.015 216.335,591.079 C224.202,598.701 223.421,612.896 238.809,611.871 C232.382,604.087 228.222,590.566 228.728,580.261 C232.196,588.263 243.003,597.357 250.324,585.662" fill="#896F46"/>
    <path d="M137.826,324.658 C130.63,358.865 122.544,419.151 123.435,442.558 C124.572,472.451 130.709,478.677 135.126,488.454 C147.733,516.354 165.149,536.285 183.735,558.665 C181.926,573.958 183.723,587.458 192.726,600.958 C194.535,590.158 196.599,586.652 198.126,583.851 C197.792,592.728 206.841,617.179 217.037,616.265 C212.53,608.165 214.165,596.015 216.335,591.079 C224.202,598.701 223.421,612.896 238.809,611.871 C232.382,604.087 228.222,590.566 228.728,580.261 C232.196,588.263 243.003,597.357 250.326,585.662 C238.338,586.164 239.004,566.709 237.731,561.365 C233.235,542.465 220.011,536.411 212.53,531.65 C202.633,525.361 185.275,500.263 175.635,481.258 C169.964,470.082 168.428,451.456 168.428,444.354 C168.428,428.158 176.421,379.189 178.335,376.858" fill-opacity="0" stroke="#1A1919" stroke-width="5.669" stroke-linecap="round" stroke-linejoin="round"/>
    <path d="M284.343,435.973 C280.752,410.362 269.146,386.491 263.046,361.551 C260.813,352.435 255.561,344.159 252.857,334.881 C249.674,323.955 263.179,307.206 271.583,299.623 C284.514,287.962 300.606,313.83 311.532,347.158 C322.127,379.488 327.743,418.996 328.653,427.947 C331.676,457.71 326.846,461.05 323.829,471.344 C315.217,500.724 300.354,526.56 285.056,551.297 C288.968,566.195 289.064,579.814 282.022,594.429 C278.73,583.988 276.201,580.806 274.298,578.247 C275.862,586.986 270.297,612.461 260.071,612.967 C263.41,604.318 260.103,592.513 257.27,587.929 C250.539,596.563 253.283,610.513 237.898,611.638 C243.184,603.039 245.427,589.068 243.495,578.935 C241.171,587.338 231.732,597.849 222.857,587.282 C234.798,586.119 231.437,566.941 231.955,561.471 C233.785,542.127 246.041,534.299 252.787,528.551 C261.715,520.945 275.421,493.675 282.331,473.519 C286.395,461.662 285.327,443.008 284.343,435.973" fill="#E3B674"/>
    <path d="M222.858,587.282 C238.784,585.728 228.667,566.027 234.128,557.525 C236.772,568.804 238.874,575.273 252.536,578.578 C254.96,579.168 261.666,579.688 263.562,579.442 C267.565,578.935 274.47,574.664 276.581,571.271 C279.433,566.687 280.653,562.359 281.747,553.574 C297.247,560.493 284.577,586.81 282.022,594.426 C278.73,583.988 276.201,580.806 274.298,578.247 C275.862,586.986 270.297,612.461 260.071,612.967 C263.41,604.318 260.103,592.513 257.27,587.929 C250.539,596.563 253.283,610.513 237.898,611.638 C243.184,603.039 245.427,589.068 243.495,578.935 C241.171,587.338 231.732,597.849 222.858,587.282" fill="#896F46"/>
    <path d="M303.432,314.761 C315.135,352.558 328.876,404.86 331.333,428.154 C334.014,453.565 330.217,465.68 326.827,475.857 C318.725,500.172 300.354,526.56 285.056,551.297 C288.968,566.195 289.064,579.814 282.022,594.429 C278.73,583.988 276.201,580.806 274.298,578.247 C275.862,586.986 270.297,612.461 260.071,612.967 C263.41,604.318 260.103,592.513 257.27,587.929 C250.539,596.563 253.283,610.513 237.898,611.638 C243.184,603.039 245.427,589.068 243.495,578.935 C241.171,587.338 231.732,597.849 222.857,587.282 C234.798,586.119 231.437,566.941 231.955,561.471 C233.785,542.127 246.041,534.299 252.787,528.551 C261.715,520.945 275.421,493.675 282.331,473.519 C286.395,461.662 285.327,443.008 284.343,435.973 C282.095,419.931 267.852,377.104 265.633,375.065" fill-opacity="0" stroke="#1A1919" stroke-width="5.669" stroke-linecap="round" stroke-linejoin="round"/>
    <path d="M416.836,811.554 C415.87,796.068 421.377,729.64 424.032,714.361 C432.555,665.314 452.827,629.765 458.225,588.361 L350.233,647.758 C354.047,672.926 367.325,717.951 371.831,764.751 C374.184,789.199 374.542,803.465 370.036,829.561 C368.383,839.131 362.073,853.566 357.428,862.865 C347.956,881.824 303.885,895.602 276.917,909.342 C260.428,914.088 224.43,919.242 216.133,926.758 C206.458,935.519 190.026,952.861 192.726,974.461 C198.341,972.623 210.162,964.146 214.337,961.851 C213.419,966.211 207.13,976.258 211.811,980.709 C215.868,978.146 224.084,974.043 231.154,969.621 C229.825,975.284 230.184,979.942 233.237,982.558 C276.433,960.961 345.135,934.791 366.432,923.165 C386.235,912.351 411.114,902.508 422.237,896.15 C434.831,888.958 430.627,868.553 425.229,852.357 C419.508,835.201 417.502,822.228 416.836,811.554" fill="#E3B674"/>
    <path d="M263.413,936.148 C264.38,927.144 259.33,922.258 249.01,925.38 C249.242,910.775 221.607,921.801 216.131,926.758 C206.457,935.519 197.235,951.054 192.726,974.461 C198.341,972.623 210.162,964.146 214.337,961.851 C213.419,966.211 207.13,976.258 211.811,980.709 C215.868,978.146 224.084,974.043 231.154,969.621 C229.825,975.284 230.184,979.942 233.237,982.558 C234.517,983.654 282.392,959.927 285.437,958.261 C289.932,938.458 274.639,934.854 263.413,936.148" fill="#896F46"/>
    <path d="M350.233,647.758 C354.047,672.926 367.325,717.951 371.831,764.751 C374.184,789.199 374.542,803.465 370.036,829.561 C368.471,838.611 364.635,853.857 354.727,866.455 C341.624,883.115 299.345,899.174 272.829,908.761 C256.341,913.504 228.728,917.751 214.337,928.564 C203.902,936.404 192.726,957.357 193.63,974.461 C199.244,972.623 210.162,964.146 214.337,961.851 C213.419,966.211 207.13,976.258 211.811,980.709 C215.868,978.146 224.084,974.043 231.154,969.621 C229.825,975.284 228.728,981.658 230.537,986.165 C273.733,959.15 345.135,934.791 366.432,923.165 C386.235,912.351 411.114,902.508 422.237,896.15 C434.831,888.958 430.627,867.357 425.229,851.158 C419.508,834.002 417.502,822.228 416.836,811.554 C415.87,796.068 419.77,729.271 424.032,714.361 C434.831,676.564 452.827,629.765 458.225,588.361 M231.428,970.857 C232.332,957.357 255.489,936.623 269.225,938.458 M214.332,961.857 C222.437,940.254 241.897,925.443 251.231,926.758 M42.431,897.058 C48.731,887.162 64.001,874.84 72.126,870.965 M23.529,888.054 C29.829,878.158 45.128,861.058 60.435,858.357" fill-opacity="0" stroke="#1A1919" stroke-width="5.669" stroke-linecap="round" stroke-linejoin="round"/>
    <path d="M271.033,642.357 C276.433,662.15 280.036,665.751 296.237,682.562 C312.442,699.381 311.586,719.203 288.431,735.36 C254.018,759.375 246.408,729.359 245.832,690.064 C245.608,674.842 243.511,650.162 245.832,642.357 C250.194,627.679 265.812,623.226 271.033,642.357" fill="#937350"/>
    <path d="M271.033,642.357 C276.433,662.15 280.036,665.751 296.237,682.562 C312.442,699.381 311.586,719.203 288.431,735.36 C254.018,759.375 246.408,729.359 245.832,690.064 C245.608,674.842 243.511,650.162 245.832,642.357 C250.194,627.679 265.812,623.226 271.033,642.357 z" fill-opacity="0" stroke="#1A1919" stroke-width="5.669" stroke-linecap="round" stroke-linejoin="round"/>
    <path d="M226.932,784.558 C229.494,787.271 236.828,791.765 244.035,789.958 C255.51,787.078 264.436,787.56 260.833,767.162 C277.314,754.742 294.44,743.756 303.432,717.951 C311.497,694.81 302.7,676.916 281.833,669.357 C257.61,660.583 243.626,667.066 235.842,693.398 C232.491,704.736 233.193,719.133 233.237,731.159 C233.34,759.646 216.444,773.445 226.932,784.558" fill="#E3B674"/>
    <path d="M226.933,784.558 C229.498,787.271 236.83,791.765 244.037,789.958 C252.298,787.884 262.431,786.281 262.149,775.291 C261.884,764.912 254.401,772.351 247.028,774.953 C242.897,776.412 238.719,770.924 234.297,770.291 C230.18,769.705 226.281,767.148 223.771,771.345 C221.63,774.931 224.446,781.922 226.933,784.558" fill="#E1E2E0"/>
    <path d="M226.932,784.558 C229.494,787.271 236.828,791.765 244.035,789.958 C255.51,787.078 264.436,787.56 260.833,767.162 C277.314,754.742 298.644,743.756 307.633,717.951 C315.7,694.81 302.7,676.916 281.833,669.357 C257.61,660.583 243.626,667.066 235.842,693.398 C232.491,704.736 233.193,719.133 233.237,731.159 C233.34,759.646 216.444,773.445 226.932,784.558 z" fill-opacity="0" stroke="#1A1919" stroke-width="5.669" stroke-linecap="round" stroke-linejoin="round"/>
    <path d="M260.235,674.754 C260.235,661.465 259.493,652.494 244.035,650.152 C228.32,647.771 203.844,661.855 203.232,674.754 C206.225,681.961 216.979,681.965 229.631,681.965 C238.037,681.965 239.834,681.965 242.826,684.957" fill="#E3B674"/>
    <path d="M235.031,776.458 C234.961,780.205 234.627,786.168 236.229,788.76" fill="#E3B674"/>
    <path d="M235.031,776.458 C234.961,780.205 234.627,786.168 236.229,788.76" fill-opacity="0" stroke="#1A1919" stroke-width="5.669" stroke-linecap="round" stroke-linejoin="round"/>
    <path d="M238.037,766.561 C242.541,768.091 248.252,770.973 248.531,771.349 C252.961,777.295 243.905,781.387 235.033,779.449 C231.748,778.728 222.282,774.791 226.03,766.853 C227.29,764.188 232.25,764.599 238.037,766.561" fill="#836B43"/>
    <path d="M238.037,766.561 C242.541,768.091 248.252,770.973 248.531,771.349 C252.961,777.295 243.905,781.387 235.033,779.449 C231.748,778.728 222.282,774.791 226.03,766.853 C227.29,764.188 232.25,764.599 238.037,766.561 z" fill-opacity="0" stroke="#1A1919" stroke-width="5.669" stroke-linecap="round" stroke-linejoin="round"/>
    <path d="M244.035,713.76 C249.486,715.574 248.069,725.355 243.438,723.963 C237.426,722.156 240.432,712.564 244.035,713.76" fill="#1A1919"/>
    <path d="M276.433,723.963 C281.567,726.536 279.26,734.358 274.628,732.967 C268.616,731.159 271.633,721.558 276.433,723.963" fill="#1A1919"/>
    <path d="M250.326,671.165 C251.523,663.969 246.94,660.091 242.228,659.156 C233.392,657.404 219.213,664.362 217.037,673.865 C220.628,680.154 233.237,683.758 243.131,685.554 C247.318,686.053 249.646,675.254 250.326,671.165" fill="#8A6939"/>
    <path d="M283.628,677.162 C288.124,664.658 290.255,656.469 305.594,659.5 C321.186,662.576 342.626,685.221 338.834,697.564 C333.581,703.333 324.342,703.041 312.434,698.763 C304.399,695.869 301.521,695.719 294.428,693.363" fill="#E3B674"/>
    <path d="M292.632,678.955 C293.939,671.783 300.479,669.545 305.228,670.258 C314.137,671.607 326.196,682.183 325.03,691.857 C314.391,696.685 308.831,696.354 298.937,692.765 C294.827,691.816 291.888,683.037 292.632,678.955" fill="#8A6939"/>
    <path d="M169.332,122.158 C164.837,102.354 152.038,77.312 141.43,64.557 C132.438,53.747 122.837,39.343 110.84,44.744 C103.646,60.346 114.305,77.642 116.826,81.355 C128.235,98.153 160.328,108.658 169.332,122.158" fill="#8A6939"/>
    <path d="M259.33,120.365 C264.73,93.365 278.185,57.224 286.045,45.981 C293.685,35.054 305.825,26.757 314.829,29.753 C324.432,41.164 302.19,68.976 298.031,76.054 C292.634,85.24 270.128,98.765 259.33,120.365" fill="#8A6939"/>
    <path d="M261.989,244.959 C263.331,259.197 254.879,278.849 251.829,285.346 C247.016,295.584 240.992,301.989 229.034,303.339 C226.536,303.62 216.886,307.245 205.256,295.039 C201.023,290.602 181.794,262.045 182.441,249.332 C186.433,231.698 179.703,218.655 175.048,194.242 C181.689,196.288 209.487,230.284 210.485,242.821 C237.048,234.679 231.732,221.794 242.361,228.59 C249.001,209.598 258.307,193.321 264.285,193.321 C259.634,227.233 261.413,238.813 261.989,244.959" fill="#C99F62"/>
    <path d="M175.665,195.494 C186.762,209.258 196.528,246.913 195.203,261.826 C203.742,271.396 244.469,270.412 253.654,260.455 C249.679,236.043 255.183,205.179 260.833,191.145" fill="#E3B674"/>
    <path d="M175.665,195.494 C186.762,209.258 196.528,246.913 195.203,261.826 C203.742,271.396 244.469,270.412 253.654,260.455 C249.679,236.043 255.183,205.179 260.833,191.145" fill-opacity="0" stroke="#1A1919" stroke-width="5.669" stroke-linecap="round" stroke-linejoin="round"/>
    <path d="M242.701,288.946 C265.921,268.478 217.787,248.326 205.824,274.008 C198.075,290.644 230.373,299.809 242.701,288.946" fill="#FFFFFE"/>
    <path d="M242.701,288.946 C265.921,268.478 217.787,248.326 205.824,274.008 C198.075,290.644 230.373,299.809 242.701,288.946 z" fill-opacity="0" stroke="#1A1919" stroke-width="5.669" stroke-linecap="round" stroke-linejoin="round"/>
    <path d="M253.04,254.145 C260.692,274.996 247.675,295.049 223.768,288.946 C199.853,289.951 180.168,257.235 201.842,248.253 C215.163,242.73 246.949,237.551 253.04,254.145" fill="#FFFFFE"/>
    <path d="M227.837,282.34 C235.905,284.924 243.045,287.997 251.972,278.631 C259.004,271.256 258.266,259.485 251.924,251.779 C241.361,238.94 212.273,239.889 200.083,250.218 C181.188,266.235 202.909,295.127 227.837,282.34 z M225.768,256.398 C225.768,265.894 227.091,271.315 227.091,280.811" fill-opacity="0" stroke="#1A1919" stroke-width="5.669" stroke-linecap="round" stroke-linejoin="round"/>
    <path d="M224.831,239.741 C235.031,240.339 248.632,242.375 250.034,251.737 C251.831,263.736 232.04,263.148 226.042,268.549 C220.63,264.347 199.191,263.17 199.629,251.139 C199.935,242.726 213.505,239.073 224.831,239.741" fill="#856142"/>
    <path d="M224.831,239.741 C235.031,240.339 248.632,242.375 250.034,251.737 C251.831,263.736 232.04,263.148 226.042,268.549 C220.63,264.347 199.191,263.17 199.629,251.139 C199.935,242.726 213.505,239.073 224.831,239.741 z" fill-opacity="0" stroke="#1A1919" stroke-width="5.669" stroke-linecap="round" stroke-linejoin="round"/>
    <path d="M235.031,255.941 C234.151,250.703 247.639,245.138 249.435,250.541 C252.429,259.545 236.243,263.148 235.031,255.941" fill="#75563B"/>
    <path d="M235.031,255.941 C234.151,250.703 247.639,245.138 249.435,250.541 C252.429,259.545 236.243,263.148 235.031,255.941 z" fill-opacity="0" stroke="#1A1919" stroke-width="5.669" stroke-linecap="round" stroke-linejoin="round"/>
    <path d="M201.438,251.737 C203.814,246.991 219.02,251.016 217.636,256.539 C215.23,266.144 197.833,258.944 201.438,251.737" fill="#75563B"/>
    <path d="M201.438,251.737 C203.814,246.991 219.02,251.016 217.636,256.539 C215.23,266.144 197.833,258.944 201.438,251.737 z M256.63,674.754 C264.73,667.558 259.493,652.494 244.035,650.152 C228.32,647.771 203.844,661.855 203.232,674.754 C212.53,681.965 217.884,684.665 230.537,684.665 C238.942,684.665 237.721,685.568 242.228,684.665 M286.328,681.058 C282.737,666.946 290.255,656.469 305.594,659.5 C321.186,662.576 342.626,685.221 338.834,697.564 C329.526,700.861 317.834,699.958 312.434,698.763 C304.098,696.914 306.029,696.01 298.937,693.654" fill-opacity="0" stroke="#1A1919" stroke-width="5.669" stroke-linecap="round" stroke-linejoin="round"/>
  </g>
</svg>
