<?xml version="1.0" encoding="UTF-8" standalone="no"?>
<svg
   xmlns:dc="http://purl.org/dc/elements/1.1/"
   xmlns:cc="http://creativecommons.org/ns#"
   xmlns:rdf="http://www.w3.org/1999/02/22-rdf-syntax-ns#"
   xmlns:svg="http://www.w3.org/2000/svg"
   xmlns="http://www.w3.org/2000/svg"
   xmlns:sodipodi="http://sodipodi.sourceforge.net/DTD/sodipodi-0.dtd"
   xmlns:inkscape="http://www.inkscape.org/namespaces/inkscape"
   sodipodi:docname="monkey.svg"
   inkscape:version="1.0 (1.0+r73+1)"
   viewBox="0 0 371.329 304.117"
   version="1.0"
   xml:space="preserve"
   id="Layer_1"><defs
   id="defs51" /><sodipodi:namedview
   inkscape:current-layer="Layer_1"
   inkscape:window-maximized="1"
   inkscape:window-y="0"
   inkscape:window-x="0"
   inkscape:cy="152.0585"
   inkscape:cx="185.66451"
   inkscape:zoom="2.7851123"
   showgrid="false"
   id="namedview49"
   inkscape:window-height="1027"
   inkscape:window-width="1920"
   inkscape:pageshadow="2"
   inkscape:pageopacity="0"
   guidetolerance="10"
   gridtolerance="10"
   objecttolerance="10"
   borderopacity="1"
   bordercolor="#666666"
   pagecolor="#ffffff" />
<path
   d="m139.72 220.17c-46.668-44.201-76.82 6.756-107.44-10.668-25.833-20.167-6.5-50.667 8.084-63.375 27.671-24.111-8.598-14.341-11.461-13.535-8.613 2.423-43.598 47.05-17.232 81.688 36.677 48.183 69.314-6.802 113.66 24.249 37.702 26.397 13.667-17.328 14.389-18.359z"
   style="stroke:#010101;stroke-width:4;fill:#794522"
   id="path3229" /><path
   d="m11.669 214.27c36.675 48.184 69.316-6.784 113.67 24.266 23.796 16.662 22.988 5.39 19.343-5.452-0.737 4.856-5.87 5.731-21.186-4.992-44.35-31.051-76.991 23.918-113.67-24.267-3.708-4.871-6.202-9.941-7.728-15.062 0.539 8.607 3.343 17.327 9.57 25.507z"
   style="fill-opacity:.3137;fill:#010101"
   id="path3334" /><path
   d="m342 160.92c0.04 68.14-55.16 123.42-123.31 123.46-68.14 0.05-123.42-55.15-123.46-123.3v-0.166c-0.046-68.144 55.159-123.42 123.3-123.47 68.144-0.046 123.42 55.16 123.47 123.3v0.164z"
   style="stroke-linejoin:round;stroke:#010101;stroke-width:4;stroke-linecap:round;fill:#794522"
   id="path2383" /><path
   d="m326.78 102.3c3.203 10.975 4.906 22.589 4.906 34.594 0 68.108-55.266 123.38-123.38 123.38-46.824 0-87.598-26.132-108.5-64.594 15.023 51.2 62.367 88.625 118.41 88.625 68.109 0 123.38-55.267 123.38-123.38 0-21.21-5.373-41.187-14.812-58.625z"
   style="fill-opacity:.3137;fill:#010101"
   id="path3339" /><path
   d="m319.26 89.999c-11.738-12.387 74.901 82.724 42.941 116.58-24.941 26.421-47 39-56 30l6-25s28-20 19-29-19-19-19-28"
   style="stroke:#010101;stroke-width:4;stroke-linecap:round;fill:#794522"
   id="path250" /><path
   d="m359.76 156.75c1.75-1 10 8.25 10 36 0 13.432-45.061 47.424-57.25 47.75 6.031-2.515 62.75-40 47.25-83.75z"
   style="fill-opacity:.3137;fill:#010101"
   id="path3349_2_" /><path
   d="m300.87 209.18c12.368-3.434 23.364 5.033 29.446 16.896 6.954 13.571 1.587 30.228-11.98 37.182-13.568 6.955-18.728-4.306-25.683-17.873-2.314-4.519-9.197-17.371-10.842-20.579-3.466-6.762-6.521-12.126 0.242-15.593 5.588-2.864 14.725-4.4 18.817-0.033z"
   style="stroke-linejoin:round;stroke:#010101;stroke-width:4;stroke-linecap:round;fill:#a05b2c"
   id="path255" /><path
   d="m298.51 253.47c8.267-1.45 15.301-8.24 15.301-8.24"
   style="stroke:#010101;stroke-width:4;stroke-linecap:round;fill:#a05b2c"
   id="path2510_6_" /><path
   d="m291.67 244.05c10.112-8.599 20.813-10.182 20.813-10.182"
   style="stroke:#010101;stroke-width:4;stroke-linecap:round;fill:#a05b2c"
   id="path2512_6_" /><path
   d="m287.78 233.54c5.878-10.023 15.451-8.922 15.451-8.922"
   style="stroke:#010101;stroke-width:4;stroke-linecap:round;fill:#a05b2c"
   id="path2514_12_" /><path
   d="m282.2 222.64c4.812-9.477 13.512-7.93 13.512-7.93"
   style="stroke:#010101;stroke-width:4;stroke-linecap:round;fill:#a05b2c"
   id="path2514_11_" /><path
   d="m333.16 235.12c-0.743 5.145-2.818 15.493-5.835 20.626-7.443 12.662-14.532 11.181-22.848 6.705 10.879-0.008 22.221-19.395 28.683-27.331z"
   style="fill-opacity:.3137;fill:#010101"
   id="path3349_1_" /><path
   d="m117.52 89.999c11.738-12.386-74.901 82.725-42.941 116.58 24.941 26.421 47 39 56 30l-6-25s-28-20-19-29 19-19 19-28"
   style="stroke:#010101;stroke-width:4;stroke-linecap:round;fill:#794522"
   id="path266" /><path
   d="m135.92 209.18c-12.368-3.434-23.364 5.033-29.446 16.896-6.954 13.571-1.587 30.228 11.98 37.182 13.568 6.955 18.728-4.306 25.683-17.873 2.314-4.519 9.197-17.371 10.842-20.579 3.466-6.762 6.521-12.126-0.242-15.593-5.588-2.864-14.725-4.4-18.817-0.033z"
   style="stroke-linejoin:round;stroke:#010101;stroke-width:4;stroke-linecap:round;fill:#a05b2c"
   id="path270" /><path
   d="m138.28 253.47c-8.267-1.45-15.301-8.24-15.301-8.24"
   style="stroke:#010101;stroke-width:4;stroke-linecap:round;fill:#a05b2c"
   id="path2510_1_" /><path
   d="m145.11 244.05c-10.11-8.59-20.81-10.18-20.81-10.18"
   style="stroke:#010101;stroke-width:4;stroke-linecap:round;fill:#a05b2c"
   id="path2512_1_" /><path
   d="m149 233.54c-5.878-10.023-15.451-8.922-15.451-8.922"
   style="stroke:#010101;stroke-width:4;stroke-linecap:round;fill:#a05b2c"
   id="path2514_2_" /><path
   d="m154.58 222.64c-4.812-9.477-13.512-7.93-13.512-7.93"
   style="stroke:#010101;stroke-width:4;stroke-linecap:round;fill:#a05b2c"
   id="path2514_1_" /><path
   d="m103.63 235.12c0.743 5.145 2.818 15.493 5.835 20.626 7.443 12.662 14.532 11.181 22.848 6.705-10.879-0.008-22.221-19.395-28.683-27.331z"
   style="fill-opacity:.3137;fill:#010101"
   id="path3349_3_" /><path
   d="m147.31 27.978c-14.965 0-27.116 12.15-27.116 27.117 0 9.685 5.088 18.175 12.733 22.971-8.083 14.287-12.733 30.776-12.733 48.353 0 54.329 44.067 98.438 98.398 98.438 54.329 0 98.439-44.109 98.439-98.438 0-17.577-4.651-34.066-12.733-48.353 7.628-4.8 12.733-13.299 12.733-22.971 0-14.967-12.152-27.117-27.116-27.117-9.673 0-18.13 5.104-22.929 12.733-14.295-8.094-30.806-12.733-48.395-12.733-17.585 0-34.063 4.643-48.354 12.733-4.797-7.629-13.254-12.733-22.927-12.733z"
   style="stroke-linejoin:round;stroke:#010101;stroke-width:4;stroke-linecap:round;fill:#794522"
   id="path2479" /><path
   d="m290.24 39.481c-5.438 0-10.188 2.865-12.897 7.147 8.318 5.602 15.478 12.755 21.075 21.075 4.268-2.712 7.112-7.503 7.112-12.931 0-8.438-6.852-15.291-15.29-15.291z"
   style="stroke-linejoin:round;stroke:#010101;stroke-width:4;stroke-linecap:round;fill:#a05b2c"
   id="path2483" /><path
   d="m147.24 39.481c5.438 0 10.188 2.865 12.897 7.147-8.317 5.602-15.478 12.755-21.074 21.075-4.269-2.712-7.113-7.503-7.113-12.931 0-8.438 6.852-15.291 15.29-15.291z"
   style="stroke-linejoin:round;stroke:#010101;stroke-width:4;stroke-linecap:round;fill:#a05b2c"
   id="path2523" /><path
   d="m242.86 41.785c10.33-6.026 6.85-35.613 1.94-37.745-4.41 15.867-8.82 22.161-16.5 27.138 2.18-9.828 0.62-23.342-6.68-29.178 0.739 8.4-1.884 21.043-10.683 29.662-2.388-9.097-3.063-19.628-12.037-23.207 2.204 10.73-0.156 17.419-2.794 24.631"
   style="stroke-linejoin:round;stroke:#010101;stroke-width:4;stroke-linecap:round;fill:#794522"
   id="path3197" /><path
   d="m275 126.97c0.217-2.913 0.341-5.878 0.34-8.894v-0.091c-0.015-37.935-17.854-68.667-39.845-68.641-6.039 0.006-11.76 2.345-16.886 6.5-5.142-4.169-10.882-6.507-16.94-6.5-21.991 0.025-39.807 30.797-39.792 68.732v0.092c0.001 2.983 0.126 5.917 0.34 8.799-11.896 8.919-19.123 20.674-19.11 33.559v0.067c0.026 27.857 33.854 47.423 75.553 47.404 41.698-0.018 75.48-19.616 75.451-47.472v-0.064c-0.014-12.861-7.238-24.589-19.111-33.491z"
   style="stroke-linejoin:round;stroke:#010101;stroke-width:4;stroke-linecap:round;fill:#a05b2c"
   id="path285" /><path
   d="m 163.61,145.13 c 0,0 20.625,27.5 55,27.5 34.375,0 55,-27.5 55,-27.5"
   style="fill:none;stroke:#010101;stroke-width:4;stroke-linecap:round;stroke-linejoin:round"
   id="path287" /><path
   d="m234.98 122.83c-2.293 3.974-6.501 5.84-9.397 4.167s-3.385-6.249-1.091-10.222c2.293-3.973 6.501-5.838 9.397-4.166 2.897 1.673 3.385 6.249 1.091 10.221z"
   style="fill:#010101"
   id="path2398" /><path
   d="m202.24 122.83c2.293 3.974 6.501 5.84 9.397 4.167s3.385-6.249 1.091-10.222c-2.293-3.973-6.501-5.838-9.397-4.166-2.897 1.673-3.385 6.249-1.091 10.221z"
   style="fill:#010101"
   id="path2412" /><path
   d="m215.26 87.838c0.008 11.501-9.309 20.831-20.811 20.838-11.5 0.008-20.831-9.31-20.838-20.81v-0.028c-0.008-11.501 9.31-20.831 20.811-20.839 11.501-0.007 20.83 9.31 20.838 20.811v0.028z"
   style="stroke-linejoin:round;stroke:#010101;stroke-width:4;stroke-linecap:round;fill:#ffffff"
   id="path2387" /><path
   d="m207.12 90.232c0.002 3.569-2.89 6.464-6.459 6.467-3.569 0.001-6.464-2.889-6.467-6.458v-0.009c-0.003-3.569 2.889-6.465 6.458-6.467 3.57-0.003 6.466 2.889 6.468 6.458v0.009z"
   style="fill:#010101"
   id="path2393" /><path
   d="m263.61 87.838c0.008 11.501-9.309 20.831-20.811 20.838-11.501 0.008-20.831-9.31-20.838-20.81v-0.028c-0.008-11.501 9.309-20.831 20.811-20.839 11.5-0.007 20.831 9.31 20.838 20.811v0.028z"
   style="stroke-linejoin:round;stroke:#010101;stroke-width:4;stroke-linecap:round;fill:#ffffff"
   id="path2391" /><path
   d="m242.55 90.232c0 3.569-2.891 6.464-6.46 6.467-3.569 0.001-6.464-2.889-6.468-6.458v-0.009c-0.001-3.569 2.891-6.465 6.459-6.467 3.57-0.003 6.465 2.889 6.469 6.458v0.009z"
   style="fill:#010101"
   id="path2395" /><path
   d="m247.58 276c2.805-13.632 16.412-20.055 30.869-20.055 16.533 0 29.951 13.418 29.951 29.95s-13.418 15.94-29.951 15.94c-5.504 0-21.311 0.283-25.217 0.283-8.24 0-14.928 0.295-14.928-7.945 0-6.809 3.039-16.384 9.276-18.173z"
   style="stroke-linejoin:round;stroke:#010101;stroke-width:4;stroke-linecap:round;fill:#a05b2c"
   id="path307" /><path
   d="m301.91 266.75c2.541 4.4 7.004 13.519 7.004 18.964 0 13.432-8.865 15.548-21.055 15.874 12.109-5.048 12.051-25.588 14.051-34.838z"
   style="fill-opacity:.3137;fill:#010101"
   id="path3349_4_" /><path
   d="m289.16 300.19c2.688-8.696-0.385-18.84-0.385-18.84"
   style="stroke:#010101;stroke-width:4;stroke-linecap:round;fill:none"
   id="path2510_4_" /><path
   d="m276.69 301.12c-3.295-14.01 0.471-25.119 0.471-25.119"
   style="stroke:#010101;stroke-width:4;stroke-linecap:round;fill:none"
   id="path2512_4_" /><path
   d="m264.62 300.67c-6.764-10.628-0.967-19.322-0.967-19.322"
   style="stroke:#010101;stroke-width:4;stroke-linecap:round;fill:none"
   id="path2514_8_" /><path
   d="m251.34 300.67c-6.764-9.33-0.967-16.961-0.967-16.961"
   style="stroke:#010101;stroke-width:4;stroke-linecap:round;fill:none"
   id="path2514_7_" /><path
   d="m248.08 277.72c-2.49 2.929-3.971 6.541-3.971 10.44 0 5.636 3.078 10.65 7.859 13.901-7.953-0.259-13.658-1.671-13.658-9.324 0-6.343 3.904-11.907 9.77-15.017z"
   style="fill-opacity:.3137;fill:#010101"
   id="path3327_4_" /><path
   d="m189.13 276c-2.805-13.632-16.413-20.055-30.87-20.055-16.532 0-29.95 13.418-29.95 29.95s13.418 15.94 29.95 15.94c5.505 0 21.311 0.283 25.218 0.283 8.24 0 14.927 0.295 14.927-7.945-0.001-6.809-3.039-16.384-9.275-18.173z"
   style="stroke-linejoin:round;stroke:#010101;stroke-width:4;stroke-linecap:round;fill:#a05b2c"
   id="path317" /><path
   d="m147.55 300.19c-2.688-8.696 0.384-18.84 0.384-18.84"
   style="stroke:#010101;stroke-width:4;stroke-linecap:round;fill:none"
   id="path2510_5_" /><path
   d="m160.02 301.12c3.294-14.01-0.471-25.119-0.471-25.119"
   style="stroke:#010101;stroke-width:4;stroke-linecap:round;fill:none"
   id="path2512_5_" /><path
   d="m172.1 300.67c6.763-10.628 0.967-19.322 0.967-19.322"
   style="stroke:#010101;stroke-width:4;stroke-linecap:round;fill:none"
   id="path2514_10_" /><path
   d="m185.37 300.67c6.763-9.33 0.967-16.961 0.967-16.961"
   style="stroke:#010101;stroke-width:4;stroke-linecap:round;fill:none"
   id="path2514_9_" /><path
   d="m188.28 277.47c2.582 2.959 4.117 6.608 4.117 10.548 0 5.693-3.19 10.76-8.147 14.044 8.243-0.262 14.157-1.688 14.157-9.42 0-6.409-4.047-12.031-10.127-15.172z"
   style="fill-opacity:.3137;fill:#010101"
   id="path3327_5_" />
<metadata
   id="metadata46"><rdf:RDF><cc:Work><dc:format>image/svg+xml</dc:format><dc:type
         rdf:resource="http://purl.org/dc/dcmitype/StillImage" /><cc:license
         rdf:resource="http://creativecommons.org/publicdomain/zero/1.0/" /><dc:publisher><cc:Agent
           rdf:about="http://openclipart.org/"><dc:title>Openclipart</dc:title></cc:Agent></dc:publisher><dc:title>Angry Cartoon monkey</dc:title><dc:date>2012-06-14T05:00:08</dc:date><dc:description>Remix for 404 page</dc:description><dc:source>https://openclipart.org/detail/170663/angry-cartoon-monkey-by-kuba-170663</dc:source><dc:creator><cc:Agent><dc:title>kuba</dc:title></cc:Agent></dc:creator><dc:subject><rdf:Bag><rdf:li>angry</rdf:li><rdf:li>brown</rdf:li><rdf:li>monkey</rdf:li><rdf:li>sad</rdf:li></rdf:Bag></dc:subject></cc:Work><cc:License
       rdf:about="http://creativecommons.org/publicdomain/zero/1.0/"><cc:permits
         rdf:resource="http://creativecommons.org/ns#Reproduction" /><cc:permits
         rdf:resource="http://creativecommons.org/ns#Distribution" /><cc:permits
         rdf:resource="http://creativecommons.org/ns#DerivativeWorks" /></cc:License></rdf:RDF></metadata></svg>
