<?xml version="1.0" encoding="UTF-8" standalone="no"?>
<svg
   xmlns:dc="http://purl.org/dc/elements/1.1/"
   xmlns:cc="http://creativecommons.org/ns#"
   xmlns:rdf="http://www.w3.org/1999/02/22-rdf-syntax-ns#"
   xmlns:svg="http://www.w3.org/2000/svg"
   xmlns="http://www.w3.org/2000/svg"
   xmlns:sodipodi="http://sodipodi.sourceforge.net/DTD/sodipodi-0.dtd"
   xmlns:inkscape="http://www.inkscape.org/namespaces/inkscape"
   sodipodi:docname="scoop.svg"
   inkscape:version="1.0 (1.0+r73+1)"
   id="svg1710"
   version="1.1"
   viewBox="0 0 11.89275 11.857789"
   height="11.857789mm"
   width="11.89275mm">
  <defs
     id="defs1704" />
  <sodipodi:namedview
     inkscape:window-maximized="1"
     inkscape:window-y="0"
     inkscape:window-x="0"
     inkscape:window-height="1027"
     inkscape:window-width="1920"
     fit-margin-bottom="0"
     fit-margin-right="0"
     fit-margin-left="0"
     fit-margin-top="0"
     showgrid="false"
     inkscape:document-rotation="0"
     inkscape:current-layer="g1005"
     inkscape:document-units="mm"
     inkscape:cy="5.2655665"
     inkscape:cx="276.7602"
     inkscape:zoom="0.35"
     inkscape:pageshadow="2"
     inkscape:pageopacity="0.0"
     borderopacity="1.0"
     bordercolor="#666666"
     pagecolor="#ffffff"
     id="base" />
  <metadata
     id="metadata1707">
    <rdf:RDF>
      <cc:Work
         rdf:about="">
        <dc:format>image/svg+xml</dc:format>
        <dc:type
           rdf:resource="http://purl.org/dc/dcmitype/StillImage" />
        <dc:title></dc:title>
      </cc:Work>
    </rdf:RDF>
  </metadata>
  <g
     transform="translate(-32.607196,-116.53539)"
     id="layer1"
     inkscape:groupmode="layer"
     inkscape:label="Layer 1">
    <g
       transform="matrix(0.26458333,0,0,0.26458333,20.03419,106.27088)"
       id="g1005">
      <path
         id="path78"
         fill="#f2576a"
         d="m 88.416,73.712 c 2.551,-3.608 4.053,-8.009 4.053,-12.762 0,-12.235 -9.92,-22.155 -22.156,-22.155 -12.236,0 -22.155,9.919 -22.155,22.155 0,5.333 1.889,10.22 5.026,14.043 -3.886,1.57 -7.069,2.008 -5.026,4.05 2.769,2.771 4.984,2.771 6.646,1.847 1.662,-0.923 4.615,-0.742 5.724,0.553 1.108,1.292 9.821,3.047 13.662,1.662 3.842,-1.384 9.047,-2.399 10.524,-2.215 1.476,0.185 6.646,-1.108 5.724,-3.509 -0.5,-1.298 -1.169,-2.538 -2.022,-3.669 z" />
      <path
         id="path82"
         fill="#b55263"
         d="m 87.667,68.889 c -0.369,2.03 -2.031,7.385 -6.737,7.847 -4.709,0.46 -4.34,-0.739 -4.34,-0.739 0,0 8.217,-0.738 11.077,-7.108 z" />
    </g>
  </g>
</svg>
