<?xml version="1.0" encoding="UTF-8" standalone="no"?>
<svg
   xmlns:dc="http://purl.org/dc/elements/1.1/"
   xmlns:cc="http://creativecommons.org/ns#"
   xmlns:rdf="http://www.w3.org/1999/02/22-rdf-syntax-ns#"
   xmlns:svg="http://www.w3.org/2000/svg"
   xmlns="http://www.w3.org/2000/svg"
   xmlns:sodipodi="http://sodipodi.sourceforge.net/DTD/sodipodi-0.dtd"
   xmlns:inkscape="http://www.inkscape.org/namespaces/inkscape"
   inkscape:version="1.0 (1.0+r73+1)"
   sodipodi:docname="squirrel.svg"
   viewBox="0 0 499.95376 634.5766"
   height="634.5766"
   width="499.95377"
   xml:space="preserve"
   id="svg2"
   version="1.1"><metadata
     id="metadata8"><rdf:RDF><cc:Work
         rdf:about=""><dc:format>image/svg+xml</dc:format><dc:type
           rdf:resource="http://purl.org/dc/dcmitype/StillImage" /><dc:title></dc:title></cc:Work></rdf:RDF></metadata><defs
     id="defs6" /><sodipodi:namedview
     inkscape:current-layer="g10"
     inkscape:window-maximized="1"
     inkscape:window-y="0"
     inkscape:window-x="0"
     inkscape:cy="296.35114"
     inkscape:cx="251.29623"
     inkscape:zoom="1.0309822"
     fit-margin-bottom="0"
     fit-margin-right="0"
     fit-margin-left="0"
     fit-margin-top="0"
     showgrid="false"
     id="namedview4"
     inkscape:window-height="1027"
     inkscape:window-width="1920"
     inkscape:pageshadow="2"
     inkscape:pageopacity="0"
     guidetolerance="10"
     gridtolerance="10"
     objecttolerance="10"
     borderopacity="1"
     bordercolor="#666666"
     pagecolor="#ffffff" /><g
     transform="matrix(1.3333333,0,0,-1.3333333,-149.73045,765.30829)"
     inkscape:label="ink_ext_XXXXXX"
     inkscape:groupmode="layer"
     id="g10"><path
       d="m 335.43101,110.788 c 105.303,20.701 154.937,113.564 151.682,229.611 -2.011,71.749 -51.072,142.11 -52.879,208.737 -2.023,74.564 -169.646,-31.585 -162.58,-147.975 0.158,-2.594 -32.83,20.731 -41.984,43.606 3.907,39.079 4.465,73.677 -8.349,90.453 -22.344,-7.901 -27.818,-22.228 -30.614,-37.573 -7.64,17.997 -17.875,29.316 -32.008,30.615 -11.606,-35.155 -22.07,-70.174 -2.781,-101.585 -20.185,-19.159 -33.635,-36.972 -30.615,-51.489 0.926,-9.277 1.854,-18.555 2.783,-27.831 -5.157,-14.969 5.523,-23.625 14.786,-25.571 -3.77,-2.03 -4.409,-3.538 -6.264,-8.176 -18.859,1.448 -28.164,-8.059 -22.438,-26.092 -4.006,-12.289 -1.103,-22.504 4.176,-32.005 6.029,5.102 12.059,10.204 18.089,15.307 18.28,-30.204 39.11,-51.708 68.535,-43.833 0.312,-33.839 12.775,-61.959 28.876,-88.369 -9.279,4.872 -21.157,12.361 -31.485,10.612 -12.201,-2.07 -26.65,-9.643 -24.581,-20.117 23.502,-7.183 42.481,-2.011 71.026,-10.324 -4.671,-5.329 -6.234,-10.47 -3.479,-15.339 3.616,-8.1738 36.842,-5.4969 75.861,-2.182 5.103,0.941 13.141,4.927 14.243,9.52"
       style="fill:#974e26;fill-opacity:1;fill-rule:evenodd;stroke:none;stroke-width:0.1"
       id="path390" /><path
       d="m 399.26101,168.175 c 39.143,46.465 73.987,154.982 47.45,214.342 -61.517,137.608 -23.856,145.693 -55.803,160.686 -35.232,16.533 -98.502,-76.046 -96.471,-145.385 8.753,-9.168 -47.959,14.002 -39.208,4.835 35.718,-18.323 71.435,-36.646 107.153,-54.969 14.379,-22.96 28.759,-45.922 43.139,-68.883 -1.088,-19.225 2.693,-38.8 1.607,-58.024 -0.998,-17.65 -4.259,-33.91 -7.867,-52.602"
       style="fill:#b06237;fill-opacity:1;fill-rule:evenodd;stroke:none;stroke-width:0.1"
       id="path392" /><path
       d="m 314.18201,384.782 c -9.789,20.415 2.483,72.413 13.102,96.805 9.228,21.199 33.134,55.961 51.785,51.688 21.325,-4.886 2.329,-47.251 6.987,-64.351 26.222,-96.265 -71.671,-84.568 -71.874,-84.142"
       style="fill:#c77f51;fill-opacity:1;fill-rule:evenodd;stroke:none;stroke-width:0.1"
       id="path394" /><path
       d="m 335.43101,110.788 c 19.838,3.9 37.698,10.362 53.604,19.056 l 10.226,38.331 c 4.972,24.176 9.945,48.35 14.919,72.526 -10.09,31.658 -20.179,63.318 -30.266,94.976 -24.354,17.163 -48.708,34.324 -73.061,51.488 -22.264,7.074 -44.53,14.148 -66.794,21.222 -5.03,7.256 -9.36,29.123 -14.389,36.38 -2.393,24.195 -6.507,32.343 -15.879,46.767 -18.509,-10.639 -23.258,-34.686 -23.657,-62.968 -42.285,-21.104 -50.483,-39.175 -62.048,-81.209 -5.157,-14.969 5.523,-23.625 14.786,-25.571 14.366,-2.056 27.564,-1.222 37.521,7.628 27.477,-7.159 39.853,17.194 44.356,41.921 1.208,-29.89 -6.385,-46.405 -38.096,-59.315 -19.249,-3.131 -43.892,1.566 -57.75,-9.394 -7.504,-9.786 -10.586,-22.222 -11.131,-36.18 11.119,6.707 22.207,13.458 38.963,12.175 15.409,-23.67 38.514,-39.649 65.057,-52.184 33.042,-3.707 39.394,15.631 50.794,30.615 6.84,-44.646 -0.581,-89.643 20.524,-133.939 -7.573,2.285 -15.269,4.091 -23.308,4.521 -10.807,9.074 -22.827,12.577 -35.956,10.984 -9.279,4.872 -21.157,12.361 -31.485,10.612 -12.201,-2.07 -26.65,-9.643 -24.581,-20.117 23.502,-7.183 42.481,-2.011 71.026,-10.324 -4.671,-5.329 -6.234,-10.47 -3.479,-15.339 3.616,-8.1738 36.842,-5.4969 75.861,-2.182 5.103,0.941 13.141,4.927 14.243,9.52"
       style="fill:#863d1b;fill-opacity:1;fill-rule:evenodd;stroke:none;stroke-width:0.1"
       id="path396" /><path
       d="m 399.26101,168.175 c 8.434,117.876 -27.232,188.78 -109.936,207.346 -32.67,7.335 -55.191,20.671 -59.655,69.246 21.492,-31.489 50.496,-43.968 78.441,-50.46 135.412,-31.455 119.45,-156.453 91.15,-226.132"
       style="fill:#643219;fill-opacity:1;fill-rule:evenodd;stroke:none;stroke-width:0.1"
       id="path398" /><path
       d="m 127.85501,346.659 c 7.283,3.455 14.847,3.704 23.056,-3.516 6.61,4.707 14.875,9.748 19.309,3.13 4.215,-6.287 -3.456,-11.172 -14.089,-12.87 2.97,-6.482 1.066,-10.738 -6.636,-12.347 -15.203,0.099 -27.112,10.672 -21.64,25.603"
       style="fill:#643219;fill-opacity:1;fill-rule:evenodd;stroke:none;stroke-width:0.1"
       id="path400" /><path
       d="m 143.33901,340.708 c -2.176,1.479 -3.636,-7.479 -7.047,-9.394 -1.943,-1.09 -7.45,3.813 -6.435,1.826 3.506,-6.871 7.711,-6.544 9.394,-5.43 1.862,1.232 7.246,5.357 4.088,12.998"
       style="fill:#522816;fill-opacity:1;fill-rule:evenodd;stroke:none;stroke-width:0.1"
       id="path402" /><path
       d="m 169.29001,362.965 c -2.58,0.387 -4.376,29.44 14.233,30.472 10.33,0.572 16.13,-10.305 13.044,-19.945 -4.781,-14.944 -10.768,-13.008 -27.277,-10.527"
       style="fill:#974e26;fill-opacity:1;fill-rule:evenodd;stroke:none;stroke-width:0.1"
       id="path404" /><path
       d="m 188.97001,385.891 c -3.992,3.353 -9.945,2.834 -13.296,-1.157 -3.352,-3.99 -5.878,-12.9 -1.886,-16.252 3.988,-3.352 12.986,0.124 16.338,4.114 3.352,3.99 2.835,9.943 -1.156,13.295"
       style="fill:#100f0d;fill-opacity:1;fill-rule:evenodd;stroke:none;stroke-width:0.1"
       id="path406" /><path
       d="m 182.85701,385.755 c -3.458,0 -6.261,-2.804 -6.261,-6.263 0,-3.458 2.803,0 6.261,0 3.458,0 6.26,-3.458 6.26,0 0,3.459 -2.802,6.263 -6.26,6.263"
       style="fill:#464648;fill-opacity:1;fill-rule:evenodd;stroke:none;stroke-width:0.1"
       id="path408" /><path
       d="m 185.97801,438.111 c -5.711,16.985 -14.924,31.72 -27.133,44.531 -6.483,-18.189 -7.09,-36.201 1.738,-53.924 9.467,1.35 18.02,4.332 25.395,9.393"
       style="fill:#863d1b;fill-opacity:1;fill-rule:evenodd;stroke:none;stroke-width:0.1"
       id="path410" /><path
       d="m 382.86401,175.617 c 10.55,31.655 1.338,76.184 -4.303,91.625 -12.347,33.789 -39.354,80.394 -76.063,90.433 -11.814,3.23 -41.489,-27.021 -42.621,-42.203 -2.718,-36.408 -31.88,-37.667 -26.489,-51.022 9.382,-23.251 61.87,7.327 76.765,22.494 21.003,-42.696 -34.672,-101.271 -6.141,-113.415 21.216,-9.034 34.423,-34.317 57.631,-28.755 8.115,1.942 18.9,23.881 21.221,30.843"
       style="fill:#974e26;fill-opacity:1;fill-rule:evenodd;stroke:none;stroke-width:0.1"
       id="path412" /></g></svg>
